<?xml version="1.0" encoding="utf-8"?>
<!-- Generator: Adobe Illustrator 19.1.0, SVG Export Plug-In . SVG Version: 6.00 Build 0)  -->
<svg version="1.1" id="Capa_1" xmlns="http://www.w3.org/2000/svg" xmlns:xlink="http://www.w3.org/1999/xlink" x="0px" y="0px"
	 viewBox="-278 402.5 37.4 37.4" style="enable-background:new -278 402.5 37.4 37.4;" xml:space="preserve">
<style type="text/css">
	.st0{fill:#FFFFFF;}
</style>
<g>
	<path class="st0" d="M-244.6,411.8c0.3-0.3,0.4-0.7,0.2-1.1c-0.2-0.4-0.5-0.6-0.9-0.6h-7.7l1.2-2.5c1.1,0.4,2.3-0.1,2.8-1.1
		c0.5-1,0-2.2-0.9-2.9l0.3-0.5c0.1-0.2,0-0.4-0.2-0.5c-0.2-0.1-0.4,0-0.5,0.2l-0.3,0.5c-1.1-0.4-2.3,0.1-2.8,1.1
		c-0.5,1,0,2.2,0.9,2.9l-1.3,2.8h-19.4c-0.4,0-0.8,0.2-0.9,0.6s-0.1,0.8,0.2,1.1l13.8,14.4v12h-3.8c-0.5,0-0.9,0.4-0.9,0.9
		c0,0.5,0.4,0.9,0.9,0.9h9.5c0.5,0,0.9-0.4,0.9-0.9c0-0.5-0.4-0.9-0.9-0.9h-3.8v-12L-244.6,411.8z M-254.8,412.1l-1.3,2.8h-10.6
		l7.4,7.7l7.4-7.7h-3.4l1.3-2.8h6.3l-11.6,12.1l-11.6-12.1H-254.8z"/>
</g>
</svg>
