<?xml version="1.0" encoding="utf-8"?>
<!-- Generator: Adobe Illustrator 19.1.0, SVG Export Plug-In . SVG Version: 6.00 Build 0)  -->
<svg version="1.1" id="Capa_1" xmlns="http://www.w3.org/2000/svg" xmlns:xlink="http://www.w3.org/1999/xlink" x="0px" y="0px"
	 viewBox="-14 288.4 566.3 265.5" style="enable-background:new -14 288.4 566.3 265.5;" xml:space="preserve">
<style type="text/css">
	.st0{fill:url(#SVGID_1_);}
	.st1{fill:none;}
	.st2{fill:url(#SVGID_2_);}
	.st3{fill:url(#SVGID_3_);}
	.st4{fill:url(#SVGID_4_);}
	.st5{fill:url(#SVGID_5_);}
	.st6{fill:url(#SVGID_6_);}
	.st7{fill:url(#SVGID_7_);}
	.st8{fill:url(#SVGID_8_);}
	.st9{fill:url(#SVGID_9_);}
	.st10{fill:url(#SVGID_10_);}
	.st11{fill:url(#SVGID_11_);}
	.st12{fill:url(#SVGID_12_);}
	.st13{fill:url(#SVGID_13_);}
	.st14{fill:url(#SVGID_14_);}
	.st15{fill:url(#SVGID_15_);}
	.st16{fill:url(#SVGID_16_);}
	.st17{fill:url(#SVGID_17_);}
	.st18{fill:#FFFFFF;}
	.st19{fill:url(#SVGID_18_);}
	.st20{fill:url(#SVGID_19_);}
	.st21{fill:url(#SVGID_20_);}
	.st22{fill:url(#SVGID_21_);}
	.st23{fill:url(#SVGID_22_);}
	.st24{fill:url(#SVGID_23_);}
	.st25{fill:url(#SVGID_24_);}
	.st26{fill:url(#SVGID_25_);}
	.st27{fill:url(#SVGID_26_);}
	.st28{fill:url(#SVGID_27_);}
	.st29{fill:url(#SVGID_28_);}
	.st30{fill:url(#SVGID_29_);}
	.st31{fill:url(#SVGID_30_);}
	.st32{fill:url(#SVGID_31_);}
	.st33{fill:url(#SVGID_32_);}
	.st34{fill:url(#SVGID_33_);}
	.st35{fill:url(#SVGID_34_);}
	.st36{fill:url(#SVGID_35_);}
	.st37{fill:url(#SVGID_36_);}
	.st38{fill:url(#SVGID_37_);}
	.st39{fill:url(#SVGID_38_);}
</style>
<linearGradient id="SVGID_1_" gradientUnits="userSpaceOnUse" x1="74.8689" y1="456.2328" x2="74.8689" y2="364.5848">
	<stop  offset="0" style="stop-color:#DEDEDE"/>
	<stop  offset="6.548572e-002" style="stop-color:#E4E4E4"/>
	<stop  offset="0.3119" style="stop-color:#F3F3F3"/>
	<stop  offset="0.5959" style="stop-color:#FCFCFC"/>
	<stop  offset="1" style="stop-color:#FFFFFF"/>
</linearGradient>
<path class="st0" d="M36.1,456.2v-91.6h40.2c11.8,0,21,2.8,27.5,8.3c6.5,5.6,9.7,13.4,9.7,23.6c0,10.7-3.3,19.1-9.8,25
	c-6.5,5.9-15.7,8.9-27.6,8.9H59.5v25.8H36.1z M59.5,412.1h15.5c5.2,0,9.1-1.3,11.9-3.8c2.8-2.5,4.2-6.2,4.2-11
	c0-4.7-1.4-8.3-4.2-10.7c-2.8-2.4-6.7-3.6-11.9-3.6H59.5V412.1z"/>
<path class="st1" d="M514.3,426.9l-15.1-39.2l-18.3,46.8c6-1,11.5-2.1,16.6-3.2C503.8,429.9,509.5,428.4,514.3,426.9z"/>
<path class="st1" d="M378,437.3c2.9,0.2,5.7,0.5,8.5,0.7c6.2,0.5,12.4,0.8,18.5,1c0.8,0,1.5,0,2.3,0.1L378,399.8V437.3z"/>
<path class="st1" d="M261.1,428.3c-3-0.5-6-1.2-9-1.6c-3-0.5-5.9-1-8.9-1.3c-1.9-0.3-3.8-0.5-5.8-0.8c1.1,1.9,2.5,3.7,4.1,5.3
	c5.1,5.2,11.5,7.8,19.2,7.8c4.9,0,10.4-1.5,16.3-4.4v-1.7c-2.3-0.5-4.5-1.1-6.8-1.5C267.2,429.5,264.2,428.8,261.1,428.3z"/>
<path class="st1" d="M144.8,424.8c1.1-0.4,2.1-0.8,3.3-1.2c3.3-1.1,6.9-2.2,10.8-3.3c3.7-1,7.7-1.9,11.9-2.8l-11.5-29.8L144.8,424.8
	z"/>
<linearGradient id="SVGID_2_" gradientUnits="userSpaceOnUse" x1="254.2979" y1="413.6997" x2="254.2979" y2="363.8182">
	<stop  offset="0" style="stop-color:#DEDEDE"/>
	<stop  offset="3.372377e-002" style="stop-color:#E1E1E1"/>
	<stop  offset="0.3163" style="stop-color:#F2F2F2"/>
	<stop  offset="0.6239" style="stop-color:#FCFCFC"/>
	<stop  offset="1" style="stop-color:#FFFFFF"/>
</linearGradient>
<path class="st2" d="M222.2,413.2c1.5,0,2.9,0.1,4.4,0.1c1.5,0.1,2.9,0.1,4.4,0.2c1,0.1,2,0.1,3.1,0.2c-0.1-1.1-0.2-2.2-0.2-3.3
	c0-7.7,2.5-14.1,7.6-19.3c5.1-5.2,11.4-7.8,19-7.8c4.3,0,8.6,0.9,13,2.7c4.4,1.8,8.2,4.2,11.5,7.3l13-15.8
	c-4.7-4.2-10.4-7.5-17.1-9.9c-6.7-2.4-13.5-3.7-20.3-3.7c-9.4,0-17.9,2-25.6,6.1c-7.7,4-13.7,9.6-18,16.7c-4.3,7.1-6.5,15-6.5,23.8
	c0,0.9,0,1.9,0.1,2.8c2.4-0.1,4.8-0.1,7.2-0.1C219.3,413.2,220.7,413.2,222.2,413.2z"/>
<linearGradient id="SVGID_3_" gradientUnits="userSpaceOnUse" x1="428.1351" y1="456.2328" x2="428.1351" y2="447.208">
	<stop  offset="0" style="stop-color:#FFFFFF"/>
	<stop  offset="0.5279" style="stop-color:#F0F0F0"/>
	<stop  offset="1" style="stop-color:#DEDEDE"/>
</linearGradient>
<path class="st3" d="M414.7,449l5.4,7.3h21.4v-9c-0.3,0-0.6,0.1-0.9,0.1C432.4,448.2,423.7,448.7,414.7,449z"/>
<linearGradient id="SVGID_4_" gradientUnits="userSpaceOnUse" x1="191.8903" y1="456.2328" x2="191.8903" y2="422.3401">
	<stop  offset="0" style="stop-color:#FFFFFF"/>
	<stop  offset="1" style="stop-color:#DEDEDE"/>
</linearGradient>
<path class="st4" d="M186.3,422.7c-4.6,0.2-9,0.6-13.2,1l12.6,32.6h24.9l-14.3-33.9c-0.9,0-1.8,0-2.6,0
	C191.2,422.5,188.7,422.5,186.3,422.7z"/>
<linearGradient id="SVGID_5_" gradientUnits="userSpaceOnUse" x1="463.3695" y1="456.2328" x2="463.3695" y2="441.1005">
	<stop  offset="0" style="stop-color:#FFFFFF"/>
	<stop  offset="0.3383" style="stop-color:#F9F9F9"/>
	<stop  offset="0.7785" style="stop-color:#E9E9E9"/>
	<stop  offset="1" style="stop-color:#DEDEDE"/>
</linearGradient>
<path class="st5" d="M452.9,445.8l-4.5,10.4h24l5.9-15.1c-1.9,0.5-3.9,0.9-5.9,1.3C466.3,443.7,459.7,444.9,452.9,445.8z"/>
<linearGradient id="SVGID_6_" gradientUnits="userSpaceOnUse" x1="523" y1="432.2466" x2="148" y2="432.2466">
	<stop  offset="0" style="stop-color:#005D6C"/>
	<stop  offset="1" style="stop-color:#419047"/>
</linearGradient>
<path class="st6" d="M310.3,427.2c-4.4-0.9-8.8-1.9-13.1-2.9v12.3c3.5,0.8,7.1,1.6,10.7,2.4c2,0.4,4,0.8,5.9,1.2v-12.2
	C312.6,427.7,311.4,427.5,310.3,427.2z"/>
<linearGradient id="SVGID_7_" gradientUnits="userSpaceOnUse" x1="523" y1="439.3537" x2="148" y2="439.3537">
	<stop  offset="0" style="stop-color:#005D6C"/>
	<stop  offset="1" style="stop-color:#419047"/>
</linearGradient>
<path class="st7" d="M337.1,432.2v12c3.3,0.5,6.6,0.9,9.9,1.3c2.8,0.4,5.6,0.7,8.4,1v-11.7C349.3,434.1,343.2,433.2,337.1,432.2z"/>
<linearGradient id="SVGID_8_" gradientUnits="userSpaceOnUse" x1="254.5943" y1="457.2552" x2="254.5943" y2="409.642">
	<stop  offset="0" style="stop-color:#FFFFFF"/>
	<stop  offset="0.3452" style="stop-color:#FBFBFB"/>
	<stop  offset="0.7008" style="stop-color:#EFEFEF"/>
	<stop  offset="1" style="stop-color:#DEDEDE"/>
</linearGradient>
<path class="st8" d="M277,409.6v10v12.1v1.7c-5.9,2.9-11.3,4.4-16.3,4.4c-7.6,0-14-2.6-19.2-7.8c-1.6-1.6-3-3.4-4.1-5.3
	c-1-0.1-2-0.3-3-0.3c-1.4-0.2-2.9-0.3-4.3-0.5c-1.4-0.1-2.9-0.2-4.3-0.4c-1.4-0.1-2.8-0.2-4.2-0.4c-1.4-0.1-2.8-0.2-4.2-0.3
	c-1.9-0.1-3.7-0.2-5.5-0.3c1.1,4.1,2.7,8.1,4.8,11.8c4.2,7.2,10,12.8,17.4,16.8c7.4,4.1,15.6,6.1,24.7,6.1c6.4,0,13.1-1.1,20.1-3.3
	c7-2.2,13-5.1,18-8.6v-8.8v-12.3v-14.7H277z"/>
<linearGradient id="SVGID_9_" gradientUnits="userSpaceOnUse" x1="325.4304" y1="456.2328" x2="325.4304" y2="364.5848">
	<stop  offset="0" style="stop-color:#DEDEDE"/>
	<stop  offset="6.548572e-002" style="stop-color:#E4E4E4"/>
	<stop  offset="0.3119" style="stop-color:#F3F3F3"/>
	<stop  offset="0.5959" style="stop-color:#FCFCFC"/>
	<stop  offset="1" style="stop-color:#FFFFFF"/>
</linearGradient>
<polygon class="st9" points="313.8,364.6 313.8,427.9 313.8,440.2 313.8,456.2 337.1,456.2 337.1,444.2 337.1,432.2 337.1,364.6 "/>
<linearGradient id="SVGID_10_" gradientUnits="userSpaceOnUse" x1="398.4482" y1="456.2328" x2="398.4482" y2="364.5848">
	<stop  offset="0" style="stop-color:#DEDEDE"/>
	<stop  offset="6.548572e-002" style="stop-color:#E4E4E4"/>
	<stop  offset="0.3119" style="stop-color:#F3F3F3"/>
	<stop  offset="0.5959" style="stop-color:#FCFCFC"/>
	<stop  offset="1" style="stop-color:#FFFFFF"/>
</linearGradient>
<path class="st10" d="M418.9,364.6v56.6l-42.2-56.6h-21.3v70.3v11.7v9.7H378v-7.8v-11.1v-37.5l29.3,39.2c11.3,0.3,22.3,0.2,32.7-0.2
	c0.5,0,1-0.1,1.5-0.1v-74.1H418.9z"/>
<linearGradient id="SVGID_11_" gradientUnits="userSpaceOnUse" x1="150.7442" y1="456.2328" x2="150.7442" y2="364.5848">
	<stop  offset="0" style="stop-color:#DEDEDE"/>
	<stop  offset="6.548572e-002" style="stop-color:#E4E4E4"/>
	<stop  offset="0.3119" style="stop-color:#F3F3F3"/>
	<stop  offset="0.5959" style="stop-color:#FCFCFC"/>
	<stop  offset="1" style="stop-color:#FFFFFF"/>
</linearGradient>
<path class="st11" d="M172,364.6h-24l-39.5,91.6h24l10.8-27.5l1.5-3.9l14.5-37.1l11.5,29.8c4.7-0.9,9.6-1.8,14.8-2.5
	c2.4-0.3,4.8-0.6,7.3-0.9L172,364.6z"/>
<linearGradient id="SVGID_12_" gradientUnits="userSpaceOnUse" x1="523" y1="422.4019" x2="148" y2="422.4019">
	<stop  offset="0" style="stop-color:#005D6C"/>
	<stop  offset="1" style="stop-color:#419047"/>
</linearGradient>
<path class="st12" d="M272.6,418.7c-6.3-1.2-12.6-2.3-18.8-3.1c-6.2-0.8-12.3-1.5-18.3-1.8c-0.5,0-0.9-0.1-1.4-0.1
	c-1-0.1-2-0.1-3.1-0.2c-1.5-0.1-3-0.1-4.4-0.2c-1.5,0-2.9-0.1-4.4-0.1c-1.5,0-2.9,0-4.3,0c-2.4,0-4.8,0-7.2,0.1
	c-3.2,0.1-6.4,0.2-9.5,0.4c-2.7,0.2-5.3,0.4-7.9,0.6c-0.1,0-0.2,0-0.3,0c-2.5,0.3-4.9,0.5-7.3,0.9c-5.2,0.7-10.2,1.5-14.8,2.5
	c-4.2,0.9-8.2,1.8-11.9,2.8c-3.9,1.1-7.5,2.2-10.8,3.3c-1.1,0.4-2.2,0.8-3.3,1.2l-1.5,3.9c1.8-0.5,3.8-0.9,5.8-1.3
	c3.3-0.8,7-1.4,10.9-2.1c4.1-0.6,8.5-1.2,13.2-1.7c4.2-0.4,8.6-0.8,13.2-1c2.4-0.1,4.9-0.2,7.4-0.3c0.9,0,1.7,0,2.6,0
	c1.7,0,3.4,0,5.1,0c3.5,0,7,0.1,10.6,0.3c1.8,0.1,3.7,0.2,5.5,0.3c1.4,0.1,2.8,0.2,4.2,0.3c1.4,0.1,2.8,0.2,4.2,0.4
	c1.4,0.1,2.8,0.2,4.3,0.4c1.4,0.2,2.9,0.3,4.3,0.5c1,0.1,2,0.2,3,0.3c1.9,0.2,3.8,0.5,5.8,0.8c2.9,0.3,5.9,0.9,8.9,1.3
	c3,0.4,6,1.1,9,1.6c3,0.5,6,1.2,9.1,1.8c2.3,0.4,4.5,1,6.8,1.5v-12.1C275.5,419.3,274,419,272.6,418.7z"/>
<linearGradient id="SVGID_13_" gradientUnits="userSpaceOnUse" x1="523" y1="438.054" x2="148" y2="438.054">
	<stop  offset="0" style="stop-color:#005D6C"/>
	<stop  offset="1" style="stop-color:#419047"/>
</linearGradient>
<path class="st13" d="M514.3,426.9c-4.8,1.4-10.5,2.9-16.8,4.4c-5.1,1.2-10.7,2.3-16.6,3.2c-3.1,0.5-6.3,1-9.6,1.4
	c-4.8,0.6-9.7,1.2-14.9,1.7c-4.8,0.4-9.8,0.8-14.9,1c-0.5,0-1,0.1-1.5,0.1c-10.4,0.5-21.4,0.6-32.7,0.2c-0.8,0-1.5,0-2.3-0.1
	c-6.1-0.2-12.2-0.5-18.5-1c-2.8-0.2-5.7-0.4-8.5-0.7v11.1c2.7,0.2,5.3,0.3,7.9,0.4c6.4,0.2,12.7,0.4,18.9,0.3c3.3,0,6.6-0.1,9.9-0.2
	c8.9-0.3,17.6-0.8,25.9-1.7c0.3,0,0.6-0.1,0.9-0.1c3.9-0.4,7.7-0.9,11.4-1.4c6.8-1,13.3-2.1,19.5-3.4c2-0.4,4-0.9,5.9-1.3
	c2.7-0.6,5.4-1.3,8-2c4.4-1.2,8.5-2.4,12.3-3.6c1.9-0.6,3.8-1.2,5.5-1.9c1.8-0.7,3.5-1.3,5.1-1.9c2.1-0.8,4.1-1.6,6-2.4L514.3,426.9
	z"/>
<linearGradient id="SVGID_14_" gradientUnits="userSpaceOnUse" x1="503.4588" y1="456.2328" x2="503.4588" y2="364.5848">
	<stop  offset="0" style="stop-color:#DEDEDE"/>
	<stop  offset="6.548572e-002" style="stop-color:#E4E4E4"/>
	<stop  offset="0.3119" style="stop-color:#F3F3F3"/>
	<stop  offset="0.5959" style="stop-color:#FCFCFC"/>
	<stop  offset="1" style="stop-color:#FFFFFF"/>
</linearGradient>
<path class="st14" d="M511.9,364.6h-24l-31.5,73.1c5.1-0.5,10.1-1,14.9-1.7c3.3-0.4,6.5-0.9,9.6-1.4l18.3-46.8l15.1,39.2l0.9,2.4
	l10.4,26.9h24.9L511.9,364.6z"/>
<linearGradient id="SVGID_15_" gradientUnits="userSpaceOnUse" x1="210.5513" y1="467.9873" x2="550.4917" y2="467.9873">
	<stop  offset="0" style="stop-color:#DEDEDE"/>
	<stop  offset="1" style="stop-color:#FFFFFF"/>
</linearGradient>
<rect x="210.6" y="467.1" class="st15" width="339.9" height="1.8"/>
<g>
	<g>
		<linearGradient id="SVGID_16_" gradientUnits="userSpaceOnUse" x1="108.359" y1="293.1824" x2="108.359" y2="553.8673">
			<stop  offset="0.5013" style="stop-color:#54BC82"/>
			<stop  offset="0.957" style="stop-color:#007B8F"/>
		</linearGradient>
		<path class="st16" d="M110.1,553.9C39,553.9-3.3,494.6-3.3,423.5c0-71.1,42.3-130.3,113.4-130.3c45.9,0,83,26.1,106,65.8l-0.7,0
			c-22-38-61.5-58.8-105.4-58.8c-68,0-123.3,55.3-123.3,123.3s55.3,123.3,123.3,123.3c45.4,0,98.2-22,119.8-61.9l-6.3-0.1
			C201,526.5,157.5,553.9,110.1,553.9z"/>
	</g>
	
		<linearGradient id="SVGID_17_" gradientUnits="userSpaceOnUse" x1="468.0311" y1="1344.817" x2="435.1339" y2="1379.9987" gradientTransform="matrix(0.9193 0.3934 -0.3934 0.9193 365.765 -1086.0101)">
		<stop  offset="0" style="stop-color:#54BC82"/>
		<stop  offset="1" style="stop-color:#9ACA4F"/>
	</linearGradient>
	<path class="st17" d="M239.9,359.9c-6.1,1.7-12.4,1.5-18.5,2.9c-1.7,0.4-3.4,1-5.1,1.7c2.8-1.6,5.2-4.7,6.9-8.5
		c2.3-4.9,3.6-11.1,3.7-17c3.6-2.5,7.5-4.4,11.7-5.7c8.1-2.4,18.2-2.8,25.7-7C263.1,341.5,253.8,356.1,239.9,359.9z"/>
	<path class="st18" d="M227.2,337.9c-0.1-2.4-0.4-4.6-0.9-6.6c-1.2-4.7-3.4-9-5.6-13.2c-1.3-2.5-2.6-5-3.6-7.6
		c-2.1-4.9-4.9-14.3-0.4-21.7l-0.5-0.4c-5.5,5.1-11.1,10.3-15.2,16.8c-4.6,7.3-6.2,15-4.6,21.8c1.5,6.3,5.7,11.5,9.8,16.6
		c0.5,0.6,0.9,1.2,1.4,1.7c3.4,4.3,7.6,11,7.9,18.4c0,0.4,0,0.7,0,1c0,0.1,0,0.2,0,0.3l0,0.5l0.4-0.2c2.9-1.5,5.5-4.5,7.6-8.8
		C226,351.1,227.4,344.1,227.2,337.9z M223.2,356.4c-1.9,4-4.4,7.2-7.4,8.7c0-0.1,0-0.2,0-0.4c0-0.3,0-0.7,0-1
		c-0.3-6.7-3.8-13.3-8-18.6c-4.5-5.6-9.4-11.2-11.1-18.2c-1.7-7.3,0.5-15.2,4.5-21.6c4-6.4,9.6-11.6,15.1-16.7
		c-3.9,6.5-2.6,14.9,0.4,22c2.9,7,7.3,13.5,9.2,20.8c0.5,2,0.8,4.2,0.9,6.5C227.1,344.1,225.8,351,223.2,356.4z"/>
	
		<linearGradient id="SVGID_18_" gradientUnits="userSpaceOnUse" x1="-92.7228" y1="1397.5585" x2="-119.6022" y2="1426.3043" gradientTransform="matrix(-0.5492 -0.8357 -0.8357 0.5492 1344.6312 -509.9154)">
		<stop  offset="0" style="stop-color:#54BC82"/>
		<stop  offset="1" style="stop-color:#9ACA4F"/>
	</linearGradient>
	<path class="st19" d="M226.9,339.5c0,1.8-0.2,3.7-0.4,5.5c0.5-2.7,0.6-5.7,0.1-10.9c0,0.1-0.1,0.2-0.1,0.2c0.2,1.2,0.3,2.4,0.3,3.6
		C226.9,338.5,226.9,339,226.9,339.5z"/>
	
		<linearGradient id="SVGID_19_" gradientUnits="userSpaceOnUse" x1="-78.8964" y1="1410.4872" x2="-105.7758" y2="1439.233" gradientTransform="matrix(-0.5492 -0.8357 -0.8357 0.5492 1344.6312 -509.9154)">
		<stop  offset="0" style="stop-color:#54BC82"/>
		<stop  offset="1" style="stop-color:#9ACA4F"/>
	</linearGradient>
	<path class="st20" d="M215.8,363.8c0-0.2,0-0.5,0-0.7c-0.4-5.7-3.1-11.2-6.5-16c-3.9,1.2-7.9,2.3-11.5,4.3
		c-8,4.4-13.2,13.4-13.1,22.5c3.8-3.8,9.6-4.9,15-5.4c5.4-0.5,11.1-0.7,15.8-3.4c0.1-0.1,0.2-0.1,0.3-0.2c0,0,0,0,0,0
		C215.8,364.5,215.8,364.2,215.8,363.8z"/>
	
		<linearGradient id="SVGID_20_" gradientUnits="userSpaceOnUse" x1="396.2637" y1="1327.7423" x2="439.0799" y2="1388.9741" gradientTransform="matrix(0.9193 0.3934 -0.3934 0.9193 365.765 -1086.0101)">
		<stop  offset="0" style="stop-color:#54BC82"/>
		<stop  offset="1" style="stop-color:#9ACA4F"/>
	</linearGradient>
	<path class="st21" d="M225,351.3c-1.4,5.4-4.4,10.7-9.2,13.6c0,0.1,0,0.2,0,0.3c0.2-0.1,0.3-0.1,0.5-0.2c2.8-1.6,5.2-4.7,6.9-8.5
		c1.6-3.4,2.7-7.4,3.3-11.4C226.1,347.1,225.6,348.9,225,351.3z"/>
	
		<linearGradient id="SVGID_21_" gradientUnits="userSpaceOnUse" x1="392.7414" y1="1330.2052" x2="435.5576" y2="1391.437" gradientTransform="matrix(0.9193 0.3934 -0.3934 0.9193 365.765 -1086.0101)">
		<stop  offset="0" style="stop-color:#54BC82"/>
		<stop  offset="1" style="stop-color:#9ACA4F"/>
	</linearGradient>
	<path class="st22" d="M226.5,334.4c-0.1-1-0.3-2-0.6-2.9c-1.9-7.4-6.3-13.8-9.2-20.8c-2.9-7-4.3-15.5-0.4-22
		c-5.5,5.1-11.1,10.3-15.1,16.7c-4,6.4-6.3,14.2-4.5,21.6c1.7,7,6.6,12.6,11.1,18.2c0.5,0.6,0.9,1.2,1.4,1.9c1.6-0.5,3.2-1,4.8-1.6
		C219.3,343.5,224.9,339.9,226.5,334.4z"/>
	
		<linearGradient id="SVGID_22_" gradientUnits="userSpaceOnUse" x1="-87.6972" y1="1402.2577" x2="-114.5766" y2="1431.0037" gradientTransform="matrix(-0.5492 -0.8357 -0.8357 0.5492 1344.6312 -509.9154)">
		<stop  offset="0" style="stop-color:#54BC82"/>
		<stop  offset="1" style="stop-color:#9ACA4F"/>
	</linearGradient>
	<path class="st23" d="M225,351.3c0.6-2.4,1.2-4.2,1.5-6.2c0.3-1.8,0.4-3.7,0.4-5.5c0-0.5,0-1,0-1.5c0-1.2-0.2-2.5-0.3-3.6
		c-1.6,5.4-7.2,9.1-12.5,11.1c-1.6,0.6-3.2,1.1-4.8,1.6c3.4,4.7,6.1,10.3,6.5,16c0,0.2,0,0.5,0,0.7c0,0.3,0,0.7,0,1c0,0,0,0,0,0
		C220.6,361.9,223.6,356.7,225,351.3z"/>
	
		<linearGradient id="SVGID_23_" gradientUnits="userSpaceOnUse" x1="396.0546" y1="1327.8884" x2="438.8708" y2="1389.1204" gradientTransform="matrix(0.9193 0.3934 -0.3934 0.9193 365.765 -1086.0101)">
		<stop  offset="0.1872" style="stop-color:#1D7844"/>
		<stop  offset="0.334" style="stop-color:#247C42"/>
		<stop  offset="0.5503" style="stop-color:#38873B"/>
		<stop  offset="0.8083" style="stop-color:#589830"/>
		<stop  offset="1" style="stop-color:#75A827"/>
	</linearGradient>
	<path class="st24" d="M225,351.3c0.6-2.4,1.2-4.2,1.5-6.2c0.3-1.8,0.4-3.7,0.4-5.5c0-0.5,0-1,0-1.5c0-1.2-0.2-2.5-0.3-3.6
		c-1.6,5.4-7.2,9.1-12.5,11.1c-1.6,0.6-3.2,1.1-4.8,1.6c3.4,4.7,6.1,10.3,6.5,16c0,0.2,0,0.5,0,0.7c0,0.3,0,0.7,0,1c0,0,0,0,0,0
		C220.6,361.9,223.6,356.7,225,351.3z"/>
</g>
<g>
	<g>
		<linearGradient id="SVGID_24_" gradientUnits="userSpaceOnUse" x1="266.5593" y1="506.7923" x2="266.5593" y2="484.5268">
			<stop  offset="0" style="stop-color:#DEDEDE"/>
			<stop  offset="6.548572e-002" style="stop-color:#E4E4E4"/>
			<stop  offset="0.3119" style="stop-color:#F3F3F3"/>
			<stop  offset="0.5959" style="stop-color:#FCFCFC"/>
			<stop  offset="1" style="stop-color:#FFFFFF"/>
		</linearGradient>
		<path class="st25" d="M274.3,506.8h-0.6l-14.2-16.3l0.3,9.9c0.1,3.1,1.1,4.8,2.3,5.3v0.4h-5.9v-0.4c1.2-0.5,2.2-2.3,2.3-5.3l0.2-9
			c-0.1-3.1-1-5.3-2.4-6.5v-0.4h4.3l12.9,15l-0.2-9.4c-0.1-3-1.1-4.7-2.3-5.2v-0.4h5.8v0.4c-1.2,0.5-2.2,2.3-2.3,5.2L274.3,506.8z"
			/>
		<linearGradient id="SVGID_25_" gradientUnits="userSpaceOnUse" x1="245.6128" y1="506.1818" x2="245.6128" y2="484.5268">
			<stop  offset="0" style="stop-color:#DEDEDE"/>
			<stop  offset="6.548572e-002" style="stop-color:#E4E4E4"/>
			<stop  offset="0.3119" style="stop-color:#F3F3F3"/>
			<stop  offset="0.5959" style="stop-color:#FCFCFC"/>
			<stop  offset="1" style="stop-color:#FFFFFF"/>
		</linearGradient>
		<path class="st26" d="M253.6,500.7v5.5h-16v-0.4c0.8-0.4,1.3-1.4,1.3-3.6v-13.6c0-2.2-0.6-3.1-1.3-3.6v-0.4h15.3v5.3h-0.4
			c-1.1-2.6-3-4.3-6.2-4.3h-2.6v9.3l2.2-0.2c2.1-0.2,3-1.5,3.7-3.1h0.4v7.2h-0.4c-0.7-1.6-1.7-2.9-3.7-3.1l-2.1-0.2v6.8
			c0,2,0.8,2.9,2.6,2.9h0.8c3.3,0,5.1-1.8,6.1-4.5H253.6z"/>
	</g>
	<g>
		<linearGradient id="SVGID_26_" gradientUnits="userSpaceOnUse" x1="291.5572" y1="495.5247" x2="311.5448" y2="495.5247">
			<stop  offset="0" style="stop-color:#FFFFFF"/>
			<stop  offset="0.4041" style="stop-color:#FCFCFC"/>
			<stop  offset="0.6881" style="stop-color:#F3F3F3"/>
			<stop  offset="0.9345" style="stop-color:#E4E4E4"/>
			<stop  offset="1" style="stop-color:#DEDEDE"/>
		</linearGradient>
		<path class="st27" d="M311.1,491.6h-0.8c-0.5-1.3-1.2-2.6-2.1-3.8c-0.9-1.2-2.2-2-4-2.5c-0.4-0.1-0.9-0.2-1.6-0.2
			c-0.7,0-1.4,0.2-2,0.5c-1.2,0.6-2.2,1.9-2.9,3.9c-0.6,1.6-0.8,3.6-0.8,6s0.3,4.5,0.8,6c0.5,1.5,1.3,2.6,2.5,3.3
			c0.7,0.4,1.5,0.6,2.6,0.6c0.8,0,1.6-0.1,2.4-0.3c1.8-0.4,3.6-1.7,5.3-3.7l0.9,0.8c-0.2,0.3-0.5,0.6-0.8,1
			c-0.3,0.4-0.7,0.8-1.1,1.2c-0.4,0.4-0.9,0.7-1.5,1.1c-0.6,0.3-1.3,0.6-2.1,0.9c-0.9,0.3-2,0.4-3.5,0.4c-2.2,0-4.4-0.7-6.5-2
			c-1.4-0.9-2.5-2.2-3.3-3.9c-0.8-1.7-1.2-3.5-1.2-5.4c0-1.9,0.4-3.7,1.2-5.4c0.8-1.7,1.9-3,3.3-3.9c2.1-1.3,4.2-2,6.5-2
			c1.4,0,2.9,0.3,4.4,0.8c0.9,0.3,1.6,0.5,2,0.5c0.3,0,0.6-0.1,0.7-0.3s0.4-0.5,0.7-1h0.7V491.6z"/>
		<linearGradient id="SVGID_27_" gradientUnits="userSpaceOnUse" x1="314.5828" y1="495.5247" x2="336.5321" y2="495.5247">
			<stop  offset="0" style="stop-color:#FFFFFF"/>
			<stop  offset="0.4041" style="stop-color:#FCFCFC"/>
			<stop  offset="0.6881" style="stop-color:#F3F3F3"/>
			<stop  offset="0.9345" style="stop-color:#E4E4E4"/>
			<stop  offset="1" style="stop-color:#DEDEDE"/>
		</linearGradient>
		<path class="st28" d="M332,504.8c-2.1,1.3-4.3,2-6.5,2c-2.2,0-4.3-0.7-6.5-2c-1.4-0.9-2.5-2.2-3.3-3.9c-0.8-1.7-1.2-3.5-1.2-5.4
			c0-1.9,0.4-3.7,1.2-5.4c0.8-1.7,1.9-3,3.3-3.9c2.1-1.3,4.3-2,6.5-2c2.2,0,4.3,0.7,6.5,2c1.4,0.9,2.5,2.2,3.3,3.9
			c0.8,1.7,1.2,3.5,1.2,5.4s-0.4,3.7-1.2,5.4C334.5,502.6,333.4,503.9,332,504.8z M327.5,505.5c1.2-0.6,2.2-1.9,2.9-3.9
			c0.5-1.5,0.8-3.5,0.8-6c0-2.6-0.3-4.6-0.8-6c-0.7-2-1.7-3.4-2.9-3.9c-0.6-0.3-1.2-0.5-2-0.5c-0.7,0-1.3,0.2-1.9,0.5
			c-1.3,0.6-2.2,1.9-2.9,3.9c-0.5,1.6-0.8,3.6-0.8,6c0,2.4,0.3,4.4,0.8,6c0.7,2,1.7,3.3,2.9,3.9c0.6,0.3,1.2,0.5,1.9,0.5
			C326.3,506,326.9,505.8,327.5,505.5z"/>
		<linearGradient id="SVGID_28_" gradientUnits="userSpaceOnUse" x1="338.6373" y1="495.5485" x2="360.1917" y2="495.5485">
			<stop  offset="0" style="stop-color:#FFFFFF"/>
			<stop  offset="0.4041" style="stop-color:#FCFCFC"/>
			<stop  offset="0.6881" style="stop-color:#F3F3F3"/>
			<stop  offset="0.9345" style="stop-color:#E4E4E4"/>
			<stop  offset="1" style="stop-color:#DEDEDE"/>
		</linearGradient>
		<path class="st29" d="M356.7,506.6l-14-17.2h0v13.5c0,0.8,0.2,1.5,0.7,2c0.4,0.5,1.1,0.7,1.9,0.7v0.7h-6.4v-0.7
			c0.8,0,1.5-0.2,1.9-0.7c0.4-0.5,0.7-1.1,0.7-2v-15l-1.2-1.4c0,0-0.1-0.2-0.3-0.5c-0.2-0.3-0.4-0.5-0.6-0.6
			c-0.2-0.1-0.4-0.2-0.7-0.2v-0.7h6.7l11,13.8h0.1v-10.4c0-0.8-0.2-1.5-0.7-2c-0.4-0.5-1.1-0.7-1.9-0.7v-0.7h6.3v0.7
			c-0.8,0-1.5,0.2-1.9,0.7c-0.4,0.5-0.7,1.1-0.7,2v18.6H356.7z"/>
		<linearGradient id="SVGID_29_" gradientUnits="userSpaceOnUse" x1="362.3562" y1="495.5247" x2="377.1525" y2="495.5247">
			<stop  offset="0" style="stop-color:#FFFFFF"/>
			<stop  offset="0.4041" style="stop-color:#FCFCFC"/>
			<stop  offset="0.6881" style="stop-color:#F3F3F3"/>
			<stop  offset="0.9345" style="stop-color:#E4E4E4"/>
			<stop  offset="1" style="stop-color:#DEDEDE"/>
		</linearGradient>
		<path class="st30" d="M376.2,491.3h-0.6c-0.4-1-0.7-1.7-0.9-2.2c-0.2-0.4-0.5-1-1-1.6c-0.5-0.6-1.1-1.1-1.8-1.6
			c-0.7-0.4-1.6-0.6-2.6-0.7c-1.2,0-2.1,0.4-2.6,1.1c-0.5,0.7-0.8,1.4-0.8,2.1c0,1.9,1.4,3.3,4.2,4.3c2.4,0.8,4.2,1.9,5.3,3.2
			c1.2,1.3,1.7,2.7,1.7,4.3c0,1.6-0.6,3.1-1.7,4.6c-1.2,1.4-3.3,2.1-6.3,2.1c-0.6,0-1.5-0.2-2.8-0.5c-1.2-0.4-2.1-0.5-2.6-0.5
			c-0.3,0-0.5,0.4-0.6,1.1h-0.8v-7.7h0.7l0.7,2.2c0.3,0.9,0.9,1.9,2,2.9c1,1.1,2.2,1.6,3.5,1.6c1.8,0,2.9-0.4,3.5-1.2
			c0.6-0.8,0.9-1.6,0.9-2.4c0-0.6-0.2-1.2-0.5-1.7c-0.3-0.5-0.9-1-1.8-1.5c-0.8-0.5-2.2-1.2-4-2.1c-1.6-0.7-2.8-1.7-3.5-2.9
			c-0.7-1.2-1.1-2.3-1.1-3.5c0-2,0.6-3.6,1.9-4.8c1.3-1.1,2.7-1.7,4.2-1.7c1,0,1.7,0.1,2.2,0.2c0.5,0.1,1.1,0.3,1.9,0.6
			c0.7,0.3,1.3,0.4,1.7,0.4c0.2,0,0.3,0,0.4-0.1c0.1-0.1,0.2-0.2,0.3-0.4c0.1-0.2,0.2-0.4,0.3-0.6h0.7V491.3z"/>
		<linearGradient id="SVGID_30_" gradientUnits="userSpaceOnUse" x1="379.6046" y1="495.3991" x2="398.7069" y2="495.3991">
			<stop  offset="0" style="stop-color:#FFFFFF"/>
			<stop  offset="0.4041" style="stop-color:#FCFCFC"/>
			<stop  offset="0.6881" style="stop-color:#F3F3F3"/>
			<stop  offset="0.9345" style="stop-color:#E4E4E4"/>
			<stop  offset="1" style="stop-color:#DEDEDE"/>
		</linearGradient>
		<path class="st31" d="M391.7,502.9c0,0.8,0.2,1.5,0.7,2c0.5,0.5,1.1,0.7,1.9,0.7v0.7H384v-0.7c0.8,0,1.5-0.2,1.9-0.7
			c0.5-0.5,0.7-1.1,0.7-2v-17.3c-1.1,0-2,0.1-2.7,0.3c-0.7,0.2-1.3,0.6-1.9,1.2c-0.5,0.5-0.8,1-1.1,1.5c-0.2,0.5-0.4,0.9-0.4,1.4
			c-0.1,0.5-0.1,0.8-0.2,1.1h-0.7v-6.5h19.1v6.5H398c0-0.3-0.1-0.7-0.2-1.1c-0.1-0.5-0.2-0.9-0.5-1.4c-0.2-0.5-0.6-1-1-1.5
			c-0.6-0.6-1.2-1-1.9-1.2c-0.7-0.2-1.6-0.3-2.7-0.3V502.9z"/>
		<linearGradient id="SVGID_31_" gradientUnits="userSpaceOnUse" x1="400.7761" y1="495.3991" x2="422.0793" y2="495.3991">
			<stop  offset="0" style="stop-color:#FFFFFF"/>
			<stop  offset="0.4041" style="stop-color:#FCFCFC"/>
			<stop  offset="0.6881" style="stop-color:#F3F3F3"/>
			<stop  offset="0.9345" style="stop-color:#E4E4E4"/>
			<stop  offset="1" style="stop-color:#DEDEDE"/>
		</linearGradient>
		<path class="st32" d="M409.2,496.2h-0.8v6.7c0,0.8,0.2,1.5,0.7,2c0.5,0.5,1.1,0.7,1.9,0.7v0.7h-10.3v-0.7c0.8,0,1.5-0.2,1.9-0.7
			c0.5-0.5,0.7-1.1,0.7-2v-14.9c0-0.8-0.2-1.5-0.7-2c-0.5-0.5-1.1-0.7-1.9-0.7v-0.7h9.9c1.5,0,2.8,0.2,4.2,0.5
			c1.3,0.4,2.4,0.9,3.2,1.7c0.9,1,1.4,2.2,1.4,3.6c0,0.8-0.2,1.6-0.6,2.3c-0.9,1.4-2.4,2.4-4.4,2.8l6,8.9c0.3,0.5,0.6,0.8,0.8,0.9
			c0.2,0.1,0.5,0.2,0.8,0.2v0.7h-6.3L409.2,496.2z M408.5,495.1h1c1.1,0,2-0.2,2.8-0.5c0.8-0.3,1.4-1,1.7-2c0.2-0.6,0.3-1.4,0.3-2.2
			c0-1.3-0.1-2.3-0.4-2.8c-0.7-1.3-2.1-1.9-4.1-1.9c-0.8,0.1-1.3,0.6-1.3,1.3V495.1z"/>
		<linearGradient id="SVGID_32_" gradientUnits="userSpaceOnUse" x1="423.5509" y1="495.6682" x2="445.2127" y2="495.6682">
			<stop  offset="0" style="stop-color:#FFFFFF"/>
			<stop  offset="0.4041" style="stop-color:#FCFCFC"/>
			<stop  offset="0.6881" style="stop-color:#F3F3F3"/>
			<stop  offset="0.9345" style="stop-color:#E4E4E4"/>
			<stop  offset="1" style="stop-color:#DEDEDE"/>
		</linearGradient>
		<path class="st33" d="M442.7,499.4c0,2.6-0.7,4.5-2.2,5.6c-1.5,1.2-3.7,1.8-6.6,1.8c-1.7-0.1-3.1-0.5-4.2-1.2s-2-1.5-2.6-2.4
			c-0.6-0.9-0.8-1.8-0.8-2.7v-12.6c0-0.8-0.2-1.5-0.7-2c-0.5-0.5-1.1-0.7-1.9-0.7v-0.7h10.3v0.7c-0.8,0-1.5,0.2-1.9,0.7
			c-0.5,0.5-0.7,1.1-0.7,2v11.5c0,3.2,1,5.1,2.9,5.7c0.5,0.2,1.2,0.2,1.9,0.2c1.5,0,2.7-0.4,3.8-1.3c1.1-0.9,1.6-2.4,1.6-4.5v-11.6
			c0-0.8-0.2-1.5-0.7-2c-0.4-0.5-1.1-0.7-1.9-0.7v-0.7h6.3v0.7c-0.8,0-1.5,0.2-1.9,0.7c-0.4,0.5-0.7,1.1-0.7,2V499.4z"/>
		<linearGradient id="SVGID_33_" gradientUnits="userSpaceOnUse" x1="447.2221" y1="495.5247" x2="467.2097" y2="495.5247">
			<stop  offset="0" style="stop-color:#FFFFFF"/>
			<stop  offset="0.4041" style="stop-color:#FCFCFC"/>
			<stop  offset="0.6881" style="stop-color:#F3F3F3"/>
			<stop  offset="0.9345" style="stop-color:#E4E4E4"/>
			<stop  offset="1" style="stop-color:#DEDEDE"/>
		</linearGradient>
		<path class="st34" d="M466.8,491.6h-0.8c-0.5-1.3-1.2-2.6-2.1-3.8c-0.9-1.2-2.2-2-4-2.5c-0.4-0.1-0.9-0.2-1.6-0.2
			c-0.7,0-1.4,0.2-2,0.5c-1.2,0.6-2.2,1.9-2.9,3.9c-0.6,1.6-0.8,3.6-0.8,6s0.3,4.5,0.8,6c0.5,1.5,1.3,2.6,2.5,3.3
			c0.7,0.4,1.5,0.6,2.6,0.6c0.8,0,1.6-0.1,2.4-0.3c1.8-0.4,3.6-1.7,5.3-3.7l0.9,0.8c-0.2,0.3-0.5,0.6-0.8,1
			c-0.3,0.4-0.7,0.8-1.1,1.2c-0.4,0.4-0.9,0.7-1.5,1.1c-0.6,0.3-1.3,0.6-2.1,0.9c-0.9,0.3-2,0.4-3.5,0.4c-2.2,0-4.4-0.7-6.5-2
			c-1.4-0.9-2.5-2.2-3.3-3.9c-0.8-1.7-1.2-3.5-1.2-5.4c0-1.9,0.4-3.7,1.2-5.4c0.8-1.7,1.9-3,3.3-3.9c2.1-1.3,4.2-2,6.5-2
			c1.4,0,2.9,0.3,4.4,0.8c0.9,0.3,1.6,0.5,2,0.5c0.3,0,0.6-0.1,0.7-0.3s0.4-0.5,0.7-1h0.7V491.6z"/>
		<linearGradient id="SVGID_34_" gradientUnits="userSpaceOnUse" x1="470.2" y1="495.5247" x2="490.1876" y2="495.5247">
			<stop  offset="0" style="stop-color:#FFFFFF"/>
			<stop  offset="0.4041" style="stop-color:#FCFCFC"/>
			<stop  offset="0.6881" style="stop-color:#F3F3F3"/>
			<stop  offset="0.9345" style="stop-color:#E4E4E4"/>
			<stop  offset="1" style="stop-color:#DEDEDE"/>
		</linearGradient>
		<path class="st35" d="M489.7,491.6h-0.8c-0.5-1.3-1.2-2.6-2.1-3.8c-0.9-1.2-2.2-2-4-2.5c-0.4-0.1-0.9-0.2-1.6-0.2
			c-0.7,0-1.4,0.2-2,0.5c-1.2,0.6-2.2,1.9-2.9,3.9c-0.6,1.6-0.8,3.6-0.8,6s0.3,4.5,0.8,6c0.5,1.5,1.3,2.6,2.5,3.3
			c0.7,0.4,1.5,0.6,2.6,0.6c0.8,0,1.6-0.1,2.4-0.3c1.8-0.4,3.6-1.7,5.3-3.7l0.9,0.8c-0.2,0.3-0.5,0.6-0.8,1
			c-0.3,0.4-0.7,0.8-1.1,1.2c-0.4,0.4-0.9,0.7-1.5,1.1c-0.6,0.3-1.3,0.6-2.1,0.9c-0.9,0.3-2,0.4-3.5,0.4c-2.2,0-4.4-0.7-6.5-2
			c-1.4-0.9-2.5-2.2-3.3-3.9c-0.8-1.7-1.2-3.5-1.2-5.4c0-1.9,0.4-3.7,1.2-5.4c0.8-1.7,1.9-3,3.3-3.9c2.1-1.3,4.2-2,6.5-2
			c1.4,0,2.9,0.3,4.4,0.8c0.9,0.3,1.6,0.5,2,0.5c0.3,0,0.6-0.1,0.7-0.3s0.4-0.5,0.7-1h0.7V491.6z"/>
		<linearGradient id="SVGID_35_" gradientUnits="userSpaceOnUse" x1="492.3884" y1="495.3991" x2="503.5123" y2="495.3991">
			<stop  offset="0" style="stop-color:#FFFFFF"/>
			<stop  offset="0.4041" style="stop-color:#FCFCFC"/>
			<stop  offset="0.6881" style="stop-color:#F3F3F3"/>
			<stop  offset="0.9345" style="stop-color:#E4E4E4"/>
			<stop  offset="1" style="stop-color:#DEDEDE"/>
		</linearGradient>
		<path class="st36" d="M500.5,502.9c0,1.8,1,2.7,3,2.7v0.7h-11.1v-0.7c2,0,3-0.9,3-2.7v-14.9c0-1.8-1-2.7-3-2.7v-0.7h11.1v0.7
			c-2,0-3,0.9-3,2.7V502.9z"/>
		<linearGradient id="SVGID_36_" gradientUnits="userSpaceOnUse" x1="505.6175" y1="491.9243" x2="527.5668" y2="491.9243">
			<stop  offset="0" style="stop-color:#FFFFFF"/>
			<stop  offset="0.4041" style="stop-color:#FCFCFC"/>
			<stop  offset="0.6881" style="stop-color:#F3F3F3"/>
			<stop  offset="0.9345" style="stop-color:#E4E4E4"/>
			<stop  offset="1" style="stop-color:#DEDEDE"/>
		</linearGradient>
		<path class="st37" d="M523.1,504.8c-2.1,1.3-4.3,2-6.5,2c-2.2,0-4.3-0.7-6.5-2c-1.4-0.9-2.5-2.2-3.3-3.9c-0.8-1.7-1.2-3.5-1.2-5.4
			c0-1.9,0.4-3.7,1.2-5.4c0.8-1.7,1.9-3,3.3-3.9c2.1-1.3,4.3-2,6.5-2c2.2,0,4.3,0.7,6.5,2c1.4,0.9,2.5,2.2,3.3,3.9
			c0.8,1.7,1.2,3.5,1.2,5.4s-0.4,3.7-1.2,5.4C525.6,502.6,524.5,503.9,523.1,504.8z M518.5,505.5c1.2-0.6,2.2-1.9,2.9-3.9
			c0.5-1.5,0.8-3.5,0.8-6c0-2.6-0.3-4.6-0.8-6c-0.7-2-1.7-3.4-2.9-3.9c-0.6-0.3-1.2-0.5-2-0.5c-0.7,0-1.3,0.2-1.9,0.5
			c-1.3,0.6-2.2,1.9-2.9,3.9c-0.5,1.6-0.8,3.6-0.8,6c0,2.4,0.3,4.4,0.8,6c0.7,2,1.7,3.3,2.9,3.9c0.6,0.3,1.2,0.5,1.9,0.5
			C517.3,506,518,505.8,518.5,505.5z M514.2,482.5l4-4.6c0.2-0.3,0.5-0.5,0.8-0.6c0.3-0.2,0.6-0.2,1-0.2c0.1,0,0.3,0,0.4,0.1
			c0.1,0,0.3,0.1,0.4,0.2c0.1,0.1,0.2,0.2,0.3,0.3c0.1,0.1,0.1,0.3,0.1,0.5c0,0.5-0.3,0.9-0.8,1.4l-4.6,3H514.2z"/>
		<linearGradient id="SVGID_37_" gradientUnits="userSpaceOnUse" x1="529.6716" y1="495.5485" x2="551.226" y2="495.5485">
			<stop  offset="0" style="stop-color:#FFFFFF"/>
			<stop  offset="0.4041" style="stop-color:#FCFCFC"/>
			<stop  offset="0.6881" style="stop-color:#F3F3F3"/>
			<stop  offset="0.9345" style="stop-color:#E4E4E4"/>
			<stop  offset="1" style="stop-color:#DEDEDE"/>
		</linearGradient>
		<path class="st38" d="M547.8,506.6l-14-17.2h0v13.5c0,0.8,0.2,1.5,0.7,2c0.4,0.5,1.1,0.7,1.9,0.7v0.7h-6.4v-0.7
			c0.8,0,1.5-0.2,1.9-0.7c0.4-0.5,0.7-1.1,0.7-2v-15l-1.2-1.4c0,0-0.1-0.2-0.3-0.5c-0.2-0.3-0.4-0.5-0.6-0.6
			c-0.2-0.1-0.4-0.2-0.7-0.2v-0.7h6.7l11,13.8h0.1v-10.4c0-0.8-0.2-1.5-0.7-2c-0.4-0.5-1.1-0.7-1.9-0.7v-0.7h6.3v0.7
			c-0.8,0-1.5,0.2-1.9,0.7c-0.4,0.5-0.7,1.1-0.7,2v18.6H547.8z"/>
	</g>
</g>
<linearGradient id="SVGID_38_" gradientUnits="userSpaceOnUse" x1="154.8305" y1="358.3308" x2="170.7572" y2="330.745">
	<stop  offset="0" style="stop-color:#DEDEDE"/>
	<stop  offset="6.548572e-002" style="stop-color:#E4E4E4"/>
	<stop  offset="0.3119" style="stop-color:#F3F3F3"/>
	<stop  offset="0.5959" style="stop-color:#FCFCFC"/>
	<stop  offset="1" style="stop-color:#FFFFFF"/>
</linearGradient>
<polygon class="st39" points="162.1,357.7 153.8,357.7 160.8,334.2 176.7,334.2 "/>
</svg>
