<?xml version="1.0" encoding="utf-8"?>
<!-- Generator: Adobe Illustrator 19.1.0, SVG Export Plug-In . SVG Version: 6.00 Build 0)  -->
<svg version="1.1" id="Capa_1" xmlns="http://www.w3.org/2000/svg" xmlns:xlink="http://www.w3.org/1999/xlink" x="0px" y="0px"
	 viewBox="-170.1 255.3 770.7 285.5" style="enable-background:new -170.1 255.3 770.7 285.5;" xml:space="preserve">
<style type="text/css">
	.st0{fill:url(#SVGID_1_);}
	.st1{fill:url(#SVGID_2_);}
	.st2{fill:#FFFFFF;}
	.st3{fill:url(#SVGID_3_);}
</style>
<g>
	<g>
		<path d="M194.6,509.7c8.1,0,12.7,3.5,12.7,9.3c0,6.5-5,9.9-11.9,9.9c-0.7,0-1.4,0-2.2-0.2v-0.5c5.5-0.7,8.1-3.5,8.1-9.1
			c0-6-3.4-8.2-8.3-8.2h-1.7v24.4c0,3,0.7,4.3,1.9,4.9v0.5h-9.2v-0.5c1.2-0.6,1.9-1.9,1.9-4.9v-20.2c0-3.1-0.7-4.3-1.9-4.9v-0.5
			H194.6z"/>
		<path d="M234.8,531.7v9.2h-22.4v-0.5c1.2-0.6,1.9-2,1.9-4.9v-20.2c0-3.1-0.6-4.3-1.9-4.9v-0.5h9.2v0.5c-1.2,0.6-1.9,1.9-1.9,4.9
			v20.7c0,2.6,1.1,3.7,4,3.7h1.8c5.3,0,7.5-2.6,8.7-7.9H234.8z"/>
		<path d="M263.3,534c1.5,3.7,2.8,5.2,4.6,6.4v0.5H257v-0.5c1.6-0.6,2.2-2.7,0.6-6.5l-1-2.4h-12.2l-0.7,1.8c-1.5,3.8-0.7,6,1.1,7.1
			v0.5h-8.7v-0.5c1.9-0.9,3.9-3.1,5.5-6.9l10.5-24.2h0.7L263.3,534z M256.1,530.1l-5.7-13.7l-5.4,13.7H256.1z"/>
		<path d="M294.2,510.2l-17.9,29.6l7.7-0.3c5.4-0.3,8.1-3,9.6-7.8h0.6v9.1h-24.3v-0.5l17.9-29.7l-7.4,0.3c-4.9,0.2-7.5,2.8-9,7.5
			h-0.6v-8.8h23.5V510.2z"/>
		<path d="M323.2,534c1.5,3.7,2.8,5.2,4.6,6.4v0.5H317v-0.5c1.6-0.6,2.2-2.7,0.6-6.5l-1-2.4h-12.2l-0.7,1.8c-1.5,3.8-0.7,6,1.1,7.1
			v0.5h-8.7v-0.5c1.9-0.9,3.9-3.1,5.5-6.9l10.5-24.2h0.7L323.2,534z M316.1,530.1l-5.7-13.7l-5.4,13.7H316.1z"/>
	</g>
	
		<linearGradient id="SVGID_1_" gradientUnits="userSpaceOnUse" x1="100.0793" y1="1138.6636" x2="36.8366" y2="1206.2977" gradientTransform="matrix(0.9608 0.2771 -0.2771 0.9608 197.2676 -790.1893)">
		<stop  offset="0" style="stop-color:#419047"/>
		<stop  offset="1" style="stop-color:#005D6C"/>
	</linearGradient>
	<path class="st0" d="M-67.6,386.5c-11.2,4.7-23.4,5.8-34.7,9.9c-3.2,1.1-6.3,2.6-9.3,4.5c5-3.7,8.8-10.1,11.3-17.8
		c3.3-10,4.3-22.1,3-33.2c6.3-5.6,13.3-10.3,21-13.6c14.9-6.5,34.1-9.7,47.3-19.5C-27.8,345.9-42.1,375.9-67.6,386.5z"/>
	
		<linearGradient id="SVGID_2_" gradientUnits="userSpaceOnUse" x1="282.3012" y1="1453.7212" x2="230.6288" y2="1508.9817" gradientTransform="matrix(-0.648 -0.7616 -0.7616 0.648 1162.5447 -388.4554)">
		<stop  offset="0" style="stop-color:#5ABA57"/>
		<stop  offset="1" style="stop-color:#073F5E"/>
	</linearGradient>
	<path class="st1" d="M-112.9,402c8.7-6.7,13.4-17.6,14.8-28.5c1.4-10.9,2.9-15.8-0.9-33c-1.5,11-11.6,19.4-21.4,24.6
		c-9.8,5.2-20.6,8.5-29.6,15c-14.1,10.3-22,28.6-19.6,46c6.4-8.2,17.2-11.6,27.4-13.8C-132,410.1-121.2,408.4-112.9,402z"/>
	<path class="st2" d="M-97.3,347.2c-0.7-4.5-1.8-8.6-3.3-12.3c-3.4-8.6-8.7-16.4-13.8-24c-3-4.4-6.1-9-8.8-13.7
		c-5.1-8.9-12.7-26.2-5.9-41.3l-1-0.6c-9.2,11-18.8,22.4-24.9,35.6c-7,15-8.2,30.1-3.5,42.6c4.4,11.7,13.6,20.7,22.6,29.3
		c1,1,2.1,2,3.1,3c7.5,7.4,17,19.2,19.4,33.2c0.1,0.8,0.2,1.4,0.3,2c0,0.2,0.1,0.4,0.1,0.7l0.1,0.9l0.8-0.5
		c5.2-3.5,9.5-9.9,12.3-18.7C-96.3,372.7-95.4,359.1-97.3,347.2z M-100.4,383.4c-2.6,8.1-6.7,14.8-12.1,18.4c0-0.2,0-0.5-0.1-0.7
		c-0.1-0.7-0.2-1.3-0.3-2c-2.2-12.7-10.4-24.5-19.6-33.5c-9.8-9.7-20.7-19.2-25.5-32.1c-5.1-13.6-2.6-29.1,3.5-42.2
		c6.1-13.2,15.5-24.4,24.9-35.5c-6,13.3-1.3,29.1,5.9,41.8c7.3,12.7,17.1,24,22.5,37.6c1.5,3.7,2.6,7.9,3.3,12.2
		C-95.9,359.1-96.9,372.5-100.4,383.4z"/>
	
		<linearGradient id="SVGID_3_" gradientUnits="userSpaceOnUse" x1="-44.997" y1="1109.8313" x2="37.3134" y2="1227.5439" gradientTransform="matrix(0.9608 0.2771 -0.2771 0.9608 197.2676 -790.1893)">
		<stop  offset="0" style="stop-color:#54BC82"/>
		<stop  offset="1" style="stop-color:#9ACA4F"/>
	</linearGradient>
	<path class="st3" d="M-100.4,383.1c-2.5,7.7-6.3,14.1-11.3,17.8c-0.3,0.2-0.6,0.4-0.8,0.5c0-0.2-0.1-0.4-0.1-0.6
		c-0.1-0.7-0.2-1.3-0.3-2c-0.1-0.5-0.2-0.9-0.3-1.4c-2.5-12.2-10.4-23.4-19.3-32.1c-9.8-9.7-20.7-19.2-25.5-32.1
		c-5.1-13.6-2.6-29.1,3.5-42.2c6.1-13.2,15.5-24.4,24.8-35.5c-6,13.3-1.3,29.1,5.9,41.8c7.3,12.7,17.1,24,22.5,37.6
		c1.5,3.7,2.6,7.9,3.3,12.2c0.1,0.9,0.3,1.9,0.4,2.9C-96,361-97.1,373.1-100.4,383.1z"/>
	<g>
		<path d="M-110.4,404.1v-1.2h18l26.7,57.1l22-57.1h16.9v1.2c-2.9,1.5-4.4,4.4-4.4,11.5v47c0,7.1,1.6,10,4.4,11.5v1.2h-21.3V474
			c2.9-1.5,4.4-4.4,4.4-11.5v-48.9l-25.4,62.7h-2.7l-28.9-61.1l1,40.7c0.2,10.8,3.4,16.1,7.3,18v1.2h-18.7V474
			c3.8-1.8,7-7.4,7.2-17.9l0.4-34.4C-103.3,410.6-105.9,406.6-110.4,404.1z"/>
		<path d="M-13.7,438.6c0-20.6,14.4-36.9,36.5-36.9c22.5,0,36.6,16.1,36.6,36.9c0,22.6-14.9,37.7-36.6,37.7
			C0.5,476.3-13.7,462.1-13.7,438.6z M45.4,438.6c0-18.2-8.1-33.9-22.6-33.9c-14.6,0-22.5,15.7-22.5,33.9c0,19.6,8.3,34.7,22.5,34.7
			C37.6,473.3,45.4,458.3,45.4,438.6z"/>
		<path d="M129.6,476.9h-1.7L81,420.6l0.9,35.8c0.3,10.5,3.5,15.7,7.4,17.6v1.2H70.6V474c3.8-1.8,7-7.3,7.2-17.6l0.5-32.3
			c-0.1-10.9-2.9-16.8-7.5-20v-1.2h12.3l44.2,54l-0.5-35.9c-0.2-9.9-3.2-15-7.1-16.9v-1.2h18.1v1.2c-3.8,1.8-6.8,7.3-7.1,17
			L129.6,476.9z"/>
		<path d="M207.2,402.9V423h-1.3c-2.1-8.8-6.6-17.2-17.9-17.2h-5.3v56.6c0,7.1,1.6,10,4.4,11.5v1.2h-21.3V474
			c2.9-1.5,4.4-4.4,4.4-11.5v-56.6h-4.8c-11.4,0-15.8,8.4-17.9,17.2h-1.4v-20.2H207.2z"/>
		<path d="M236.8,473.1c8.4,0.1,12.5-5.1,12.5-11.3c0-18.4-34.8-16.9-34.8-40.6c0-11.4,9.9-19.4,22.8-19.4c8.8,0,15.1,2.1,19.6,4.9
			v16.2h-1.4c-4.2-13.1-11.9-18-18.9-18c-7.2,0-11.5,4.6-11.5,10.6c0,18.2,35,17.5,35,40.3c0,11.7-8.8,20.5-23.7,20.5
			c-9.9,0-16.8-3-21.3-5.6V454h1.3C221.1,466.8,229,473.1,236.8,473.1z"/>
		<path d="M324.7,457.4v17.7h-51.8V474c2.8-1.4,4.4-4.3,4.4-11.5v-47c0-7.2-1.6-10.1-4.4-11.5v-1.2h49.8v16.5h-1.4
			c-3.3-8.7-9.1-13.4-20.3-13.4h-11.1v31.4l9.3-0.6c6.8-0.4,9.9-4.2,11.8-10.2h1.2v23.2H311c-2-5.9-5.1-9.3-12-9.8l-9.1-0.6v24.1
			c0,6.1,2.6,8.7,8.7,8.7h4.9c11.6,0,16.8-4.8,19.8-14.7H324.7z"/>
		<path d="M369.4,460.8c-4.5-5.5-8.7-11.7-13.4-18.3v-1.1c13.4-1.5,19.5-8.6,19.5-18.4c0-10.5-5.9-16.9-18.2-16.9H353v56.5
			c0,7.2,1.7,10.1,4.4,11.5v1.2h-21.3V474c2.9-1.5,4.4-4.4,4.4-11.5v-47c0-7.2-1.6-10.1-4.4-11.5v-1.2h24.7
			c19.4,0,28.6,7.6,28.6,19.8c0,11.6-9.9,17-20.2,18.5l8.3,10c10.5,13,15.8,18.4,21,21.2l-0.1,1.2c-2,1.6-4.2,2.6-8,2.6
			C383,476.2,378.4,472.4,369.4,460.8z"/>
		<path d="M439.8,460.8c-4.5-5.5-8.7-11.7-13.4-18.3v-1.1c13.4-1.5,19.5-8.6,19.5-18.4c0-10.5-5.9-16.9-18.2-16.9h-4.3v56.5
			c0,7.2,1.7,10.1,4.4,11.5v1.2h-21.3V474c2.9-1.5,4.4-4.4,4.4-11.5v-47c0-7.2-1.6-10.1-4.4-11.5v-1.2h24.7
			c19.4,0,28.6,7.6,28.6,19.8c0,11.6-9.9,17-20.2,18.5l8.3,10c10.5,13,15.8,18.4,21,21.2l-0.1,1.2c-2,1.6-4.2,2.6-8,2.6
			C453.4,476.2,448.8,472.4,439.8,460.8z"/>
		<path d="M532.2,459.2c3.5,8.5,6.4,12.1,10.6,14.8v1.2h-25.1V474c3.6-1.3,5-6.2,1.4-15.1l-2.3-5.5h-28.3l-1.6,4.2
			c-3.5,8.9-1.6,13.8,2.6,16.4v1.2h-20.3V474c4.5-2.1,9-7.1,12.9-16.1l24.4-56.2h1.6L532.2,459.2z M515.6,450.3l-13.2-31.7
			l-12.5,31.7H515.6z"/>
		<path d="M600.6,402.9V423h-1.3c-2.1-8.8-6.6-17.2-17.9-17.2h-5.3v56.6c0,7.1,1.6,10,4.4,11.5v1.2h-21.3V474
			c2.9-1.5,4.4-4.4,4.4-11.5v-56.6h-4.8c-11.4,0-15.8,8.4-17.9,17.2h-1.4v-20.2H600.6z"/>
	</g>
	<g>
		<path d="M199.1,338.4c-1.2,0.6-1.9,1.8-1.9,4.9v20.2c0,3.1,0.7,4.3,1.9,4.9v0.5h-9.2v-0.5c1.2-0.6,1.9-1.9,1.9-4.9v-9.5h-14.7v9.5
			c0,3.1,0.7,4.3,1.9,4.9v0.5h-9.2v-0.5c1.2-0.6,1.9-1.9,1.9-4.9v-20.2c0-3.1-0.7-4.3-1.9-4.9v-0.5h9.2v0.5
			c-1.2,0.6-1.9,1.8-1.9,4.9v9.4h14.7v-9.4c0-3.1-0.7-4.3-1.9-4.9v-0.5h9.2V338.4z"/>
		<path d="M204.8,353.3c0-8.9,6.2-15.9,15.7-15.9c9.7,0,15.8,6.9,15.8,15.9c0,9.8-6.4,16.3-15.8,16.3
			C210.9,369.6,204.8,363.4,204.8,353.3z M230.2,353.3c0-7.9-3.5-14.6-9.8-14.6c-6.3,0-9.7,6.7-9.7,14.6c0,8.5,3.6,15,9.7,15
			C226.9,368.3,230.2,361.8,230.2,353.3z"/>
		<path d="M265.5,337.9v8.7h-0.6c-0.9-3.8-2.9-7.4-7.7-7.4h-2.3v24.4c0,3.1,0.7,4.3,1.9,4.9v0.5h-9.2v-0.5c1.2-0.6,1.9-1.9,1.9-4.9
			v-24.4h-2.1c-4.9,0-6.8,3.6-7.7,7.4h-0.6v-8.7H265.5z"/>
		<path d="M292.3,361.5v7.6H270v-0.5c1.2-0.6,1.9-1.8,1.9-4.9v-20.2c0-3.1-0.7-4.3-1.9-4.9v-0.5h21.4v7.1h-0.6
			c-1.4-3.7-3.9-5.8-8.7-5.8h-4.8v13.5l4-0.3c2.9-0.2,4.3-1.8,5.1-4.4h0.5v10h-0.5c-0.9-2.5-2.2-4-5.2-4.2l-3.9-0.3V364
			c0,2.6,1.1,3.7,3.7,3.7h2.1c5,0,7.3-2.1,8.6-6.3H292.3z"/>
		<path d="M319.6,359.9v9.2h-22.4v-0.5c1.2-0.6,1.9-2,1.9-4.9v-20.2c0-3.1-0.6-4.3-1.9-4.9v-0.5h9.2v0.5c-1.2,0.6-1.9,1.9-1.9,4.9
			V364c0,2.6,1.1,3.7,4,3.7h1.8c5.3,0,7.5-2.6,8.7-7.9H319.6z"/>
	</g>
</g>
</svg>
