<?xml version="1.0" encoding="utf-8"?>
<!-- Generator: Adobe Illustrator 19.1.0, SVG Export Plug-In . SVG Version: 6.00 Build 0)  -->
<svg version="1.1" id="Capa_1" xmlns="http://www.w3.org/2000/svg" xmlns:xlink="http://www.w3.org/1999/xlink" x="0px" y="0px"
	 viewBox="-38 212.2 518.9 417.7" style="enable-background:new -38 212.2 518.9 417.7;" xml:space="preserve">
<style type="text/css">
	.st0{fill:none;stroke:#231F20;stroke-width:9.8716;stroke-miterlimit:10;}
	.st1{fill:url(#SVGID_1_);}
	.st2{fill:url(#SVGID_2_);}
	.st3{fill:url(#SVGID_3_);}
	.st4{fill:#FFFFFF;}
	.st5{fill:url(#SVGID_4_);}
</style>
<g>
	<g>
		<path d="M0.7,402.6v-0.9h14.4l16.5,35.6l13.1-35.6H58v0.9c-1.9,1.1-3.1,3.2-3.1,8v30.1c0,4.8,1.3,6.9,3.1,8v0.9H41.8v-0.9
			c1.8-1.1,3-3.2,3-8v-31.5l-16,41.1h-2.2L7.4,409.8L8,436.6c0.2,7,2.5,10.8,5.1,12v0.9H0.1v-0.9c2.6-1.2,4.9-5.1,5-11.9l0.4-22.4
			C5.6,407.3,3.8,404.6,0.7,402.6z"/>
		<path d="M66,425.4c0-13.9,9.7-24.5,24.6-24.5c15.3,0,24.7,10.5,24.7,24.5c0,15-9.9,24.9-24.7,24.9C75.2,450.3,66,441,66,425.4z
			 M104,425.4c0-11.8-4.5-22.3-13.4-22.3c-9.2,0-13.4,10.5-13.4,22.3c0,12.2,4.5,22.7,13.4,22.7C99.8,448.1,104,437.7,104,425.4z"/>
		<path d="M162,450.9h-1.3l-31.3-35.9l0.7,21.9c0.2,6.9,2.5,10.6,5.1,11.8v0.9h-13.1v-0.9c2.6-1.2,4.8-5,5-11.8l0.5-19.9
			c-0.1-6.9-2.2-11.7-5.4-14.3v-0.9h9.6l28.5,33.2l-0.5-20.8c-0.2-6.6-2.3-10.3-5-11.5v-0.9h12.9v0.9c-2.6,1.2-4.8,5-5,11.6
			L162,450.9z"/>
		<path d="M214.2,401.7v14.1h-0.9c-1.6-5.3-4.6-11.9-12.3-11.9h-2.6v36.8c0,4.8,1.3,6.9,3.1,8v0.9h-16.3v-0.9c1.8-1.1,3-3.2,3-8
			v-36.8h-2.3c-7.7,0-10.7,6.6-12.3,11.9h-0.9v-14.1H214.2z"/>
		<path d="M234,448c5,0.1,7.7-2.8,7.7-6.7c0-11.4-23.2-10.7-23.2-26.8c0-8,7-13.4,15.8-13.4c5.8,0,10.2,1.3,13.4,3.4v11.2h-0.9
			c-3.3-9.5-8.7-12.4-13-12.4c-4.4,0-6.9,2.8-6.9,6.3c0,11.1,23.3,11.2,23.3,26.5c0,8.2-6,14.2-16.7,14.2c-6.5,0-11.5-2-14.6-3.7
			v-11.7h0.9C223.5,443.4,228.7,448,234,448z"/>
		<path d="M293.5,437.3v12.2h-35.3v-0.9c1.7-1,3-3.1,3-8v-30.1c0-4.9-1.3-7-3-8v-0.9h33.7v11.8H291c-2.3-5.8-6.7-9.6-13.8-9.6h-5.8
			v20.5l4.8-0.4c4.5-0.4,6.7-3.3,8.2-7h0.9v16h-0.9c-1.6-3.6-3.7-6.4-8.2-6.7l-4.7-0.4V441c0,4.5,1.8,6.3,5.7,6.3h1.8
			c7.2,0,11.4-3.9,13.6-10H293.5z"/>
		<path d="M323.3,440.2c-2.7-3.4-5.1-7.4-8-12v-0.9c8-1.4,11.3-6.2,11.3-12.6c0-6.4-3-10.9-10.7-10.9h-2.2v36.8c0,4.9,1.3,7,3,8v0.9
			h-16.2v-0.9c1.8-1.1,3-3.2,3-8v-30.1c0-4.9-1.3-7-3-8v-0.9h17.9c13.4,0,19.3,5.1,19.3,13.1c0,7.8-6.4,11.1-12.3,12.1l4.3,5.5
			c5.8,7.5,10.2,12.6,14.1,15.1l-0.2,0.9c-1.7,1.2-3.3,1.8-6.1,1.8C332.3,450.2,328.7,447.4,323.3,440.2z"/>
		<path d="M371.5,440.2c-2.7-3.4-5.1-7.4-8-12v-0.9c8-1.4,11.3-6.2,11.3-12.6c0-6.4-3-10.9-10.7-10.9h-2.2v36.8c0,4.9,1.3,7,3,8v0.9
			h-16.2v-0.9c1.8-1.1,3-3.2,3-8v-30.1c0-4.9-1.3-7-3-8v-0.9h17.9c13.4,0,19.3,5.1,19.3,13.1c0,7.8-6.4,11.1-12.3,12.1l4.3,5.5
			c5.8,7.5,10.2,12.6,14.1,15.1l-0.2,0.9c-1.7,1.2-3.3,1.8-6.1,1.8C380.5,450.2,376.9,447.4,371.5,440.2z"/>
		<path d="M434.6,437.3c2.6,6,4.8,9.2,8,11.3v0.9h-19.7v-0.9c2.8-0.9,3.8-4.7,1.1-11.1l-0.9-2h-17.6l-0.9,2.1
			c-2.1,5.3-0.9,9.1,2.5,11v0.9h-14.6v-0.9c3.1-1.4,6.5-5.2,8.9-10.8l16.3-36.9h1.3L434.6,437.3z M422.3,433.3l-8.1-19.4l-7.7,19.4
			H422.3z"/>
		<path d="M481.5,401.7v14.1h-0.9c-1.6-5.3-4.6-11.9-12.3-11.9h-2.6v36.8c0,4.8,1.3,6.9,3.1,8v0.9h-16.3v-0.9c1.8-1.1,3-3.2,3-8
			v-36.8h-2.3c-7.7,0-10.7,6.6-12.3,11.9H440v-14.1H481.5z"/>
	</g>
	<g>
		<g>
			<path d="M142.7,460.9c12.8,0,19.8,5.4,19.8,14.4c0,10.2-8.3,15.2-18.7,15.3c-1.2,0-2.6-0.1-3.8-0.3v-0.7
				c9.9-0.7,14.9-5.3,14.9-13.9c0-9.1-5.7-12.8-14.5-12.8h-3.4V502c0,4.7,0.9,6.6,2.9,7.5v0.7h-12.6v-0.7c2-1,2.9-2.8,2.9-7.5v-32.9
				c0-4.8-0.9-6.6-2.9-7.5v-0.7H142.7z"/>
			<path d="M204.9,496.7v13.5H171v-0.7c2-1,2.9-2.9,2.9-7.5v-32.9c0-4.8-0.9-6.6-2.9-7.5v-0.7h12.6v0.7c-2,1-2.9,2.8-2.9,7.5v33.8
				c0,3.8,1.7,5.4,6.1,5.4h4c8.5,0,11.5-3.1,13.3-11.6H204.9z"/>
			<path d="M249.3,500.8c2.2,5.3,3.9,7.2,6.4,8.7v0.7h-14.4v-0.7c2.2-1,3.1-3.7,0.7-9.3l-2.2-5.3h-20.1l-1.4,3.4
				c-2.6,6.7-1.4,9.6,1.1,11.1v0.7h-12.7v-0.7c2.9-1.5,5.6-4.4,8.3-10.8l16.5-38.6h0.9L249.3,500.8z M239.1,493.1l-9.5-23.1
				l-9.1,23.1H239.1z"/>
			<path d="M296.4,496.5v13.7h-37.6v-0.7l29.2-47.1l-13.2,0.4c-8.3,0.3-11.7,3.7-13.7,11.3h-0.8v-13.1h36v0.7L267,508.7l13.5-0.4
				c9.4-0.4,13.1-4,15.1-11.8H296.4z"/>
			<path d="M341.5,500.8c2.2,5.3,3.9,7.2,6.4,8.7v0.7h-14.4v-0.7c2.2-1,3.1-3.7,0.7-9.3L332,495h-20.1l-1.4,3.4
				c-2.6,6.7-1.4,9.6,1.1,11.1v0.7h-12.7v-0.7c2.9-1.5,5.6-4.4,8.3-10.8l16.5-38.6h0.9L341.5,500.8z M331.3,493.1l-9.5-23.1
				l-9.1,23.1H331.3z"/>
		</g>
	</g>
	<g>
		<path d="M169.7,344c-1.9,0.9-2.8,2.6-2.8,7.1v31c0,4.5,0.9,6.2,2.8,7.1v0.6h-11.9v-0.6c1.9-0.9,2.8-2.6,2.8-7.1v-14.7h-24v14.7
			c0,4.5,0.8,6.2,2.8,7.1v0.6h-11.9v-0.6c1.9-0.9,2.8-2.6,2.8-7.1v-31c0-4.5-0.9-6.2-2.8-7.1v-0.6h11.9v0.6
			c-1.9,0.9-2.8,2.6-2.8,7.1v14.6h24v-14.6c0-4.5-0.9-6.2-2.8-7.1v-0.6h11.9V344z"/>
		<path d="M178.8,366.3c0-13,9.1-23.7,23-23.7c14.1,0,23.1,10.5,23.1,23.7c0,14.6-9.7,24.3-23.2,24.3
			C187.8,390.6,178.8,381.3,178.8,366.3z M217.7,366.3c0-12-6.1-21.9-15.9-21.9c-9.9,0-15.9,9.9-15.9,21.9
			c0,13.2,6.1,22.5,15.9,22.5C211.7,388.8,217.7,379.6,217.7,366.3z"/>
		<path d="M268.1,343.4v12.4h-0.8c-1.3-6.1-4.1-10.6-11.2-10.6H252v37c0,4.5,0.8,6.2,2.8,7.1v0.6h-11.9v-0.6
			c1.9-0.9,2.8-2.6,2.8-7.1v-37h-3.9c-7.1,0-9.9,4.4-11.2,10.6h-0.8v-12.4H268.1z"/>
		<path d="M307.9,378.9v11h-32.4v-0.6c1.9-0.9,2.8-2.6,2.8-7.1v-31c0-4.5-0.9-6.2-2.8-7.1v-0.6h31.3v9.9H306
			c-2.1-5.7-5.5-8.1-12.8-8.1h-8.6v20.4l7.2-0.3c4.3-0.2,6.2-2.3,7.3-6.3h0.7v14.4h-0.7c-1.2-4.1-3.1-5.9-7.5-6.1l-7-0.3V383
			c0,3.6,1.6,5.1,5.5,5.1h4.6c7.7,0,10.6-2.5,12.4-9.2H307.9z"/>
		<path d="M347.7,377.1v12.8h-32v-0.6c1.9-0.9,2.8-2.8,2.8-7.1v-31c0-4.5-0.8-6.2-2.8-7.1v-0.6h11.9v0.6c-1.9,0.9-2.8,2.6-2.8,7.1
			V383c0,3.6,1.6,5.1,5.7,5.1h3.8c8,0,10.8-3,12.6-11H347.7z"/>
	</g>
	<path class="st0" d="M154,442.7"/>
	<path class="st0" d="M126.1,346.2"/>
	<g>
		<linearGradient id="SVGID_1_" gradientUnits="userSpaceOnUse" x1="153.766" y1="213.6957" x2="153.766" y2="623.7792">
			<stop  offset="0.5013" style="stop-color:#54BC82"/>
			<stop  offset="0.957" style="stop-color:#007B8F"/>
		</linearGradient>
		<path class="st1" d="M156.5,623.8c-111.8,0-178.4-93.2-178.4-205c0-111.8,66.6-205,178.4-205c72.1,0,130.6,41,166.8,103.5l-1,0
			c-34.6-59.8-96.7-92.4-165.7-92.4c-106.9,0-193.9,87-193.9,193.9s87,193.9,193.9,193.9c71.4,0,154.6-34.6,188.5-97.4L335,515
			C299.5,580.7,231.1,623.8,156.5,623.8z"/>
	</g>
	
		<linearGradient id="SVGID_2_" gradientUnits="userSpaceOnUse" x1="567.8762" y1="1221.7518" x2="516.1219" y2="1277.0999" gradientTransform="matrix(0.9193 0.3934 -0.3934 0.9193 361.8077 -1067.8849)">
		<stop  offset="0" style="stop-color:#419047"/>
		<stop  offset="1" style="stop-color:#005D6C"/>
	</linearGradient>
	<path class="st2" d="M360.7,318.7c-9.5,2.7-19.5,2.3-29.2,4.5c-2.7,0.6-5.4,1.5-8,2.7c4.4-2.5,8.1-7.3,10.9-13.3
		c3.6-7.8,5.7-17.5,5.8-26.7c5.7-3.9,11.9-7,18.4-8.9c12.8-3.8,28.7-4.4,40.4-11C397.1,289.7,382.5,312.6,360.7,318.7z"/>
	
		<linearGradient id="SVGID_3_" gradientUnits="userSpaceOnUse" x1="-165.1748" y1="1248.9667" x2="-207.4583" y2="1294.1864" gradientTransform="matrix(-0.5492 -0.8357 -0.8357 0.5492 1269.936 -550.2578)">
		<stop  offset="0" style="stop-color:#5ABA57"/>
		<stop  offset="1" style="stop-color:#00748B"/>
	</linearGradient>
	<path class="st3" d="M322.3,326.7c7.8-4.5,12.6-12.9,14.9-21.6c2.2-8.7,3.9-12.5,2.6-26.9c-2.4,8.8-11.4,14.6-19.8,17.8
		c-8.5,3.2-17.6,4.8-25.6,9.2c-12.5,6.9-20.7,21-20.6,35.4c6-6,15.1-7.7,23.7-8.4C306,331.4,315,331.1,322.3,326.7z"/>
	<path class="st4" d="M340.7,284c-0.1-3.7-0.6-7.2-1.4-10.3c-1.9-7.3-5.4-14.2-8.8-20.8c-2-3.9-4-7.9-5.7-12
		c-3.3-7.8-7.7-22.5-0.6-34.1l-0.7-0.6c-8.6,8-17.5,16.3-23.8,26.4c-7.2,11.5-9.7,23.6-7.2,34.3c2.4,9.9,9,18.2,15.4,26.1
		c0.7,0.9,1.5,1.8,2.2,2.7c5.4,6.8,11.9,17.3,12.4,28.9c0,0.6,0,1.1,0,1.6c0,0.2,0,0.4,0,0.5l0,0.8l0.7-0.3
		c4.6-2.3,8.7-7.1,11.9-13.9C338.9,304.8,341,293.9,340.7,284z M334.5,313.1c-3,6.3-6.9,11.3-11.7,13.7c0-0.2,0-0.4,0-0.6
		c0-0.5,0-1.1,0-1.6c-0.5-10.5-6-20.9-12.5-29.2c-7-8.8-14.8-17.7-17.5-28.7c-2.7-11.5,0.8-23.9,7.1-33.9
		c6.3-10.1,15.1-18.3,23.8-26.3c-6.2,10.2-4,23.5,0.6,34.6c4.6,11,11.5,21.2,14.5,32.8c0.8,3.2,1.3,6.6,1.4,10.2
		C340.6,293.8,338.4,304.6,334.5,313.1z"/>
	
		<linearGradient id="SVGID_4_" gradientUnits="userSpaceOnUse" x1="449.4324" y1="1198.7629" x2="516.7905" y2="1295.0922" gradientTransform="matrix(0.9193 0.3934 -0.3934 0.9193 361.8077 -1067.8849)">
		<stop  offset="0" style="stop-color:#54BC82"/>
		<stop  offset="1" style="stop-color:#9ACA4F"/>
	</linearGradient>
	<path class="st5" d="M334.5,313.3c-2.8,6-6.5,10.8-10.9,13.3c-0.2,0.1-0.5,0.2-0.7,0.3c0-0.2,0-0.3,0-0.5c0-0.5,0-1.1,0-1.6
		c0-0.4,0-0.8-0.1-1.2c-0.8-10.1-6.1-20.1-12.4-28c-7-8.8-14.8-17.7-17.5-28.7c-2.7-11.5,0.8-23.9,7.1-33.9
		c6.3-10.1,15.1-18.3,23.8-26.3c-6.2,10.2-4,23.5,0.6,34.6c4.6,11,11.5,21.2,14.5,32.8c0.8,3.2,1.3,6.6,1.4,10.2c0,0.8,0,1.6,0,2.4
		C340.2,295.8,338.1,305.5,334.5,313.3z"/>
</g>
</svg>
