<?xml version="1.0" encoding="utf-8"?>
<!-- Generator: Adobe Illustrator 19.1.0, SVG Export Plug-In . SVG Version: 6.00 Build 0)  -->
<svg version="1.1" id="Capa_1" xmlns="http://www.w3.org/2000/svg" xmlns:xlink="http://www.w3.org/1999/xlink" x="0px" y="0px"
	 viewBox="-14.5 212.6 518.9 417.7" style="enable-background:new -14.5 212.6 518.9 417.7;" xml:space="preserve">
<style type="text/css">
	.st0{fill:url(#SVGID_1_);}
	.st1{fill:url(#SVGID_2_);}
	.st2{fill:url(#SVGID_3_);}
	.st3{fill:url(#SVGID_4_);}
	.st4{fill:url(#SVGID_5_);}
	.st5{fill:url(#SVGID_6_);}
	.st6{fill:url(#SVGID_7_);}
	.st7{fill:url(#SVGID_8_);}
	.st8{fill:url(#SVGID_9_);}
	.st9{fill:url(#SVGID_10_);}
	.st10{fill:url(#SVGID_11_);}
	.st11{fill:url(#SVGID_12_);}
	.st12{fill:url(#SVGID_13_);}
	.st13{fill:url(#SVGID_14_);}
	.st14{fill:url(#SVGID_15_);}
	.st15{fill:url(#SVGID_16_);}
	.st16{fill:url(#SVGID_17_);}
	.st17{fill:url(#SVGID_18_);}
	.st18{fill:url(#SVGID_19_);}
	.st19{fill:url(#SVGID_20_);}
	.st20{fill:none;stroke:#231F20;stroke-width:9.8716;stroke-miterlimit:10;}
	.st21{fill:url(#SVGID_21_);}
	.st22{fill:url(#SVGID_22_);}
	.st23{fill:#FFFFFF;}
	.st24{fill:url(#SVGID_23_);}
	.st25{fill:url(#SVGID_24_);}
	.st26{fill:url(#SVGID_25_);}
	.st27{fill:url(#SVGID_26_);}
	.st28{fill:url(#SVGID_27_);}
</style>
<g>
	<g>
		<linearGradient id="SVGID_1_" gradientUnits="userSpaceOnUse" x1="52.041" y1="456.816" x2="52.041" y2="408.1697">
			<stop  offset="0" style="stop-color:#DEDEDE"/>
			<stop  offset="6.548572e-002" style="stop-color:#E4E4E4"/>
			<stop  offset="0.3119" style="stop-color:#F3F3F3"/>
			<stop  offset="0.5959" style="stop-color:#FCFCFC"/>
			<stop  offset="1" style="stop-color:#FFFFFF"/>
		</linearGradient>
		<path class="st0" d="M23.7,409.1v-0.9h14.4l16.5,35.6l13.1-35.6H81v0.9c-1.9,1.1-3.1,3.2-3.1,8v30.1c0,4.8,1.3,6.9,3.1,8v0.9H64.8
			v-0.9c1.8-1.1,3-3.2,3-8v-31.5l-16,41.1h-2.2l-19.1-40.5l0.6,26.8c0.2,7,2.5,10.8,5.1,12v0.9H23.1v-0.9c2.6-1.2,4.9-5.1,5-11.9
			l0.4-22.4C28.6,413.8,26.8,411.1,23.7,409.1z"/>
		<linearGradient id="SVGID_2_" gradientUnits="userSpaceOnUse" x1="113.6078" y1="456.816" x2="113.6078" y2="407.3891">
			<stop  offset="0" style="stop-color:#DEDEDE"/>
			<stop  offset="6.548572e-002" style="stop-color:#E4E4E4"/>
			<stop  offset="0.3119" style="stop-color:#F3F3F3"/>
			<stop  offset="0.5959" style="stop-color:#FCFCFC"/>
			<stop  offset="1" style="stop-color:#FFFFFF"/>
		</linearGradient>
		<path class="st1" d="M89,431.9c0-13.9,9.7-24.5,24.6-24.5c15.3,0,24.7,10.5,24.7,24.5c0,15-9.9,24.9-24.7,24.9
			C98.2,456.8,89,447.5,89,431.9z M127,431.9c0-11.8-4.5-22.3-13.4-22.3c-9.2,0-13.4,10.5-13.4,22.3c0,12.2,4.5,22.7,13.4,22.7
			C122.8,454.6,127,444.2,127,431.9z"/>
		<linearGradient id="SVGID_3_" gradientUnits="userSpaceOnUse" x1="167.9656" y1="457.385" x2="167.9656" y2="408.1697">
			<stop  offset="0" style="stop-color:#DEDEDE"/>
			<stop  offset="6.548572e-002" style="stop-color:#E4E4E4"/>
			<stop  offset="0.3119" style="stop-color:#F3F3F3"/>
			<stop  offset="0.5959" style="stop-color:#FCFCFC"/>
			<stop  offset="1" style="stop-color:#FFFFFF"/>
		</linearGradient>
		<path class="st2" d="M185,457.4h-1.3l-31.3-35.9l0.7,21.9c0.2,6.9,2.5,10.6,5.1,11.8v0.9h-13.1v-0.9c2.6-1.2,4.8-5,5-11.8
			l0.5-19.9c-0.1-6.9-2.2-11.7-5.4-14.3v-0.9h9.6l28.5,33.2l-0.5-20.8c-0.2-6.6-2.3-10.3-5-11.5v-0.9h12.9v0.9
			c-2.6,1.2-4.8,5-5,11.6L185,457.4z"/>
		<linearGradient id="SVGID_4_" gradientUnits="userSpaceOnUse" x1="216.431" y1="456.0354" x2="216.431" y2="408.1697">
			<stop  offset="0" style="stop-color:#DEDEDE"/>
			<stop  offset="6.548572e-002" style="stop-color:#E4E4E4"/>
			<stop  offset="0.3119" style="stop-color:#F3F3F3"/>
			<stop  offset="0.5959" style="stop-color:#FCFCFC"/>
			<stop  offset="1" style="stop-color:#FFFFFF"/>
		</linearGradient>
		<path class="st3" d="M237.2,408.2v14.1h-0.9c-1.6-5.3-4.6-11.9-12.3-11.9h-2.6v36.8c0,4.8,1.3,6.9,3.1,8v0.9h-16.3v-0.9
			c1.8-1.1,3-3.2,3-8v-36.8h-2.3c-7.7,0-10.7,6.6-12.3,11.9h-0.9v-14.1H237.2z"/>
		<linearGradient id="SVGID_5_" gradientUnits="userSpaceOnUse" x1="257.4406" y1="456.7455" x2="257.4406" y2="407.5313">
			<stop  offset="0" style="stop-color:#DEDEDE"/>
			<stop  offset="6.548572e-002" style="stop-color:#E4E4E4"/>
			<stop  offset="0.3119" style="stop-color:#F3F3F3"/>
			<stop  offset="0.5959" style="stop-color:#FCFCFC"/>
			<stop  offset="1" style="stop-color:#FFFFFF"/>
		</linearGradient>
		<path class="st4" d="M257,454.5c5,0.1,7.7-2.8,7.7-6.7c0-11.4-23.2-10.7-23.2-26.8c0-8,7-13.4,15.8-13.4c5.8,0,10.2,1.3,13.4,3.4
			v11.2h-0.9c-3.3-9.5-8.7-12.4-13-12.4c-4.4,0-6.9,2.8-6.9,6.3c0,11.1,23.3,11.2,23.3,26.5c0,8.2-6,14.2-16.7,14.2
			c-6.5,0-11.5-2-14.6-3.7v-11.7h0.9C246.5,449.9,251.7,454.5,257,454.5z"/>
		<linearGradient id="SVGID_6_" gradientUnits="userSpaceOnUse" x1="298.8405" y1="456.0354" x2="298.8405" y2="408.1697">
			<stop  offset="0" style="stop-color:#DEDEDE"/>
			<stop  offset="6.548572e-002" style="stop-color:#E4E4E4"/>
			<stop  offset="0.3119" style="stop-color:#F3F3F3"/>
			<stop  offset="0.5959" style="stop-color:#FCFCFC"/>
			<stop  offset="1" style="stop-color:#FFFFFF"/>
		</linearGradient>
		<path class="st5" d="M316.5,443.8V456h-35.3v-0.9c1.7-1,3-3.1,3-8V417c0-4.9-1.3-7-3-8v-0.9h33.7V420H314
			c-2.3-5.8-6.7-9.6-13.8-9.6h-5.8v20.5l4.8-0.4c4.5-0.4,6.7-3.3,8.2-7h0.9v16h-0.9c-1.6-3.6-3.7-6.4-8.2-6.7l-4.7-0.4v15.1
			c0,4.5,1.8,6.3,5.7,6.3h1.8c7.2,0,11.4-3.9,13.6-10H316.5z"/>
		<linearGradient id="SVGID_7_" gradientUnits="userSpaceOnUse" x1="345.211" y1="456.7455" x2="345.211" y2="408.1697">
			<stop  offset="0" style="stop-color:#DEDEDE"/>
			<stop  offset="6.548572e-002" style="stop-color:#E4E4E4"/>
			<stop  offset="0.3119" style="stop-color:#F3F3F3"/>
			<stop  offset="0.5959" style="stop-color:#FCFCFC"/>
			<stop  offset="1" style="stop-color:#FFFFFF"/>
		</linearGradient>
		<path class="st6" d="M346.3,446.7c-2.7-3.4-5.1-7.4-8-12v-0.9c8-1.4,11.3-6.2,11.3-12.6c0-6.4-3-10.9-10.7-10.9h-2.2v36.8
			c0,4.9,1.3,7,3,8v0.9h-16.2v-0.9c1.8-1.1,3-3.2,3-8V417c0-4.9-1.3-7-3-8v-0.9h17.9c13.4,0,19.3,5.1,19.3,13.1
			c0,7.8-6.4,11.1-12.3,12.1l4.3,5.5c5.8,7.5,10.2,12.6,14.1,15.1l-0.2,0.9c-1.7,1.2-3.3,1.8-6.1,1.8
			C355.3,456.7,351.7,453.9,346.3,446.7z"/>
		<linearGradient id="SVGID_8_" gradientUnits="userSpaceOnUse" x1="393.4283" y1="456.7455" x2="393.4283" y2="408.1697">
			<stop  offset="0" style="stop-color:#DEDEDE"/>
			<stop  offset="6.548572e-002" style="stop-color:#E4E4E4"/>
			<stop  offset="0.3119" style="stop-color:#F3F3F3"/>
			<stop  offset="0.5959" style="stop-color:#FCFCFC"/>
			<stop  offset="1" style="stop-color:#FFFFFF"/>
		</linearGradient>
		<path class="st7" d="M394.5,446.7c-2.7-3.4-5.1-7.4-8-12v-0.9c8-1.4,11.3-6.2,11.3-12.6c0-6.4-3-10.9-10.7-10.9h-2.2v36.8
			c0,4.9,1.3,7,3,8v0.9h-16.2v-0.9c1.8-1.1,3-3.2,3-8V417c0-4.9-1.3-7-3-8v-0.9h17.9c13.4,0,19.3,5.1,19.3,13.1
			c0,7.8-6.4,11.1-12.3,12.1l4.3,5.5c5.8,7.5,10.2,12.6,14.1,15.1l-0.2,0.9c-1.7,1.2-3.3,1.8-6.1,1.8
			C403.5,456.7,399.9,453.9,394.5,446.7z"/>
		<linearGradient id="SVGID_9_" gradientUnits="userSpaceOnUse" x1="440.6148" y1="456.0354" x2="440.6148" y2="407.3891">
			<stop  offset="0" style="stop-color:#DEDEDE"/>
			<stop  offset="6.548572e-002" style="stop-color:#E4E4E4"/>
			<stop  offset="0.3119" style="stop-color:#F3F3F3"/>
			<stop  offset="0.5959" style="stop-color:#FCFCFC"/>
			<stop  offset="1" style="stop-color:#FFFFFF"/>
		</linearGradient>
		<path class="st8" d="M457.6,443.8c2.6,6,4.8,9.2,8,11.3v0.9h-19.7v-0.9c2.8-0.9,3.8-4.7,1.1-11.1l-0.9-2h-17.6l-0.9,2.1
			c-2.1,5.3-0.9,9.1,2.5,11v0.9h-14.6v-0.9c3.1-1.4,6.5-5.2,8.9-10.8l16.3-36.9h1.3L457.6,443.8z M445.3,439.8l-8.1-19.4l-7.7,19.4
			H445.3z"/>
		<linearGradient id="SVGID_10_" gradientUnits="userSpaceOnUse" x1="483.7204" y1="456.0354" x2="483.7204" y2="408.1697">
			<stop  offset="0" style="stop-color:#DEDEDE"/>
			<stop  offset="6.548572e-002" style="stop-color:#E4E4E4"/>
			<stop  offset="0.3119" style="stop-color:#F3F3F3"/>
			<stop  offset="0.5959" style="stop-color:#FCFCFC"/>
			<stop  offset="1" style="stop-color:#FFFFFF"/>
		</linearGradient>
		<path class="st9" d="M504.5,408.2v14.1h-0.9c-1.6-5.3-4.6-11.9-12.3-11.9h-2.6v36.8c0,4.8,1.3,6.9,3.1,8v0.9h-16.3v-0.9
			c1.8-1.1,3-3.2,3-8v-36.8h-2.3c-7.7,0-10.7,6.6-12.3,11.9H463v-14.1H504.5z"/>
	</g>
	<g>
		<linearGradient id="SVGID_11_" gradientUnits="userSpaceOnUse" x1="167.9643" y1="516.6984" x2="167.9643" y2="467.4345">
			<stop  offset="0" style="stop-color:#DEDEDE"/>
			<stop  offset="6.548572e-002" style="stop-color:#E4E4E4"/>
			<stop  offset="0.3119" style="stop-color:#F3F3F3"/>
			<stop  offset="0.5959" style="stop-color:#FCFCFC"/>
			<stop  offset="1" style="stop-color:#FFFFFF"/>
		</linearGradient>
		<path class="st10" d="M165.7,467.4c12.8,0,19.8,5.4,19.8,14.4c0,10.2-8.3,15.2-18.7,15.3c-1.2,0-2.6-0.1-3.8-0.3v-0.7
			c9.9-0.7,14.9-5.3,14.9-13.9c0-9.1-5.7-12.8-14.5-12.8h-3.4v39.1c0,4.7,0.9,6.6,2.9,7.5v0.7h-12.6V516c2-1,2.9-2.8,2.9-7.5v-32.9
			c0-4.8-0.9-6.6-2.9-7.5v-0.7H165.7z"/>
		<linearGradient id="SVGID_12_" gradientUnits="userSpaceOnUse" x1="210.9743" y1="516.6984" x2="210.9743" y2="467.4345">
			<stop  offset="0" style="stop-color:#DEDEDE"/>
			<stop  offset="6.548572e-002" style="stop-color:#E4E4E4"/>
			<stop  offset="0.3119" style="stop-color:#F3F3F3"/>
			<stop  offset="0.5959" style="stop-color:#FCFCFC"/>
			<stop  offset="1" style="stop-color:#FFFFFF"/>
		</linearGradient>
		<path class="st11" d="M227.9,503.2v13.5H194V516c2-1,2.9-2.9,2.9-7.5v-32.9c0-4.8-0.9-6.6-2.9-7.5v-0.7h12.6v0.7
			c-2,1-2.9,2.8-2.9,7.5v33.8c0,3.8,1.7,5.4,6.1,5.4h4c8.5,0,11.5-3.1,13.3-11.6H227.9z"/>
		<linearGradient id="SVGID_13_" gradientUnits="userSpaceOnUse" x1="254.1669" y1="516.6984" x2="254.1669" y2="466.6311">
			<stop  offset="0" style="stop-color:#DEDEDE"/>
			<stop  offset="6.548572e-002" style="stop-color:#E4E4E4"/>
			<stop  offset="0.3119" style="stop-color:#F3F3F3"/>
			<stop  offset="0.5959" style="stop-color:#FCFCFC"/>
			<stop  offset="1" style="stop-color:#FFFFFF"/>
		</linearGradient>
		<path class="st12" d="M272.3,507.3c2.2,5.3,3.9,7.2,6.4,8.7v0.7h-14.4V516c2.2-1,3.1-3.7,0.7-9.3l-2.2-5.3h-20.1l-1.4,3.4
			c-2.6,6.7-1.4,9.6,1.1,11.1v0.7h-12.7V516c2.9-1.5,5.6-4.4,8.3-10.8l16.5-38.6h0.9L272.3,507.3z M262.1,499.6l-9.5-23.1l-9.1,23.1
			H262.1z"/>
		<linearGradient id="SVGID_14_" gradientUnits="userSpaceOnUse" x1="300.537" y1="516.6984" x2="300.537" y2="467.4345">
			<stop  offset="0" style="stop-color:#DEDEDE"/>
			<stop  offset="6.548572e-002" style="stop-color:#E4E4E4"/>
			<stop  offset="0.3119" style="stop-color:#F3F3F3"/>
			<stop  offset="0.5959" style="stop-color:#FCFCFC"/>
			<stop  offset="1" style="stop-color:#FFFFFF"/>
		</linearGradient>
		<path class="st13" d="M319.4,503v13.7h-37.6V516l29.2-47.1l-13.2,0.4c-8.3,0.3-11.7,3.7-13.7,11.3h-0.8v-13.1h36v0.7L290,515.2
			l13.5-0.4c9.4-0.4,13.1-4,15.1-11.8H319.4z"/>
		<linearGradient id="SVGID_15_" gradientUnits="userSpaceOnUse" x1="346.3987" y1="516.6984" x2="346.3987" y2="466.6311">
			<stop  offset="0" style="stop-color:#DEDEDE"/>
			<stop  offset="6.548572e-002" style="stop-color:#E4E4E4"/>
			<stop  offset="0.3119" style="stop-color:#F3F3F3"/>
			<stop  offset="0.5959" style="stop-color:#FCFCFC"/>
			<stop  offset="1" style="stop-color:#FFFFFF"/>
		</linearGradient>
		<path class="st14" d="M364.5,507.3c2.2,5.3,3.9,7.2,6.4,8.7v0.7h-14.4V516c2.2-1,3.1-3.7,0.7-9.3l-2.2-5.3h-20.1l-1.4,3.4
			c-2.6,6.7-1.4,9.6,1.1,11.1v0.7h-12.7V516c2.9-1.5,5.6-4.4,8.3-10.8l16.5-38.6h0.9L364.5,507.3z M354.3,499.6l-9.5-23.1l-9.1,23.1
			H354.3z"/>
	</g>
	<g>
		<linearGradient id="SVGID_16_" gradientUnits="userSpaceOnUse" x1="171.5031" y1="396.3619" x2="171.5031" y2="349.8568">
			<stop  offset="0" style="stop-color:#DEDEDE"/>
			<stop  offset="6.548572e-002" style="stop-color:#E4E4E4"/>
			<stop  offset="0.3119" style="stop-color:#F3F3F3"/>
			<stop  offset="0.5959" style="stop-color:#FCFCFC"/>
			<stop  offset="1" style="stop-color:#FFFFFF"/>
		</linearGradient>
		<path class="st15" d="M192.7,350.5c-1.9,0.9-2.8,2.6-2.8,7.1v31c0,4.5,0.9,6.2,2.8,7.1v0.6h-11.9v-0.6c1.9-0.9,2.8-2.6,2.8-7.1
			v-14.7h-24v14.7c0,4.5,0.8,6.2,2.8,7.1v0.6h-11.9v-0.6c1.9-0.9,2.8-2.6,2.8-7.1v-31c0-4.5-0.9-6.2-2.8-7.1v-0.6h11.9v0.6
			c-1.9,0.9-2.8,2.6-2.8,7.1v14.6h24v-14.6c0-4.5-0.9-6.2-2.8-7.1v-0.6h11.9V350.5z"/>
		<linearGradient id="SVGID_17_" gradientUnits="userSpaceOnUse" x1="224.8367" y1="397.1204" x2="224.8367" y2="349.0983">
			<stop  offset="0" style="stop-color:#DEDEDE"/>
			<stop  offset="6.548572e-002" style="stop-color:#E4E4E4"/>
			<stop  offset="0.3119" style="stop-color:#F3F3F3"/>
			<stop  offset="0.5959" style="stop-color:#FCFCFC"/>
			<stop  offset="1" style="stop-color:#FFFFFF"/>
		</linearGradient>
		<path class="st16" d="M201.8,372.8c0-13,9.1-23.7,23-23.7c14.1,0,23.1,10.5,23.1,23.7c0,14.6-9.7,24.3-23.2,24.3
			C210.8,397.1,201.8,387.8,201.8,372.8z M240.7,372.8c0-12-6.1-21.9-15.9-21.9c-9.9,0-15.9,9.9-15.9,21.9
			c0,13.2,6.1,22.5,15.9,22.5C234.7,395.3,240.7,386.1,240.7,372.8z"/>
		<linearGradient id="SVGID_18_" gradientUnits="userSpaceOnUse" x1="271.8914" y1="396.3619" x2="271.8914" y2="349.8568">
			<stop  offset="0" style="stop-color:#DEDEDE"/>
			<stop  offset="6.548572e-002" style="stop-color:#E4E4E4"/>
			<stop  offset="0.3119" style="stop-color:#F3F3F3"/>
			<stop  offset="0.5959" style="stop-color:#FCFCFC"/>
			<stop  offset="1" style="stop-color:#FFFFFF"/>
		</linearGradient>
		<path class="st17" d="M291.1,349.9v12.4h-0.8c-1.3-6.1-4.1-10.6-11.2-10.6H275v37c0,4.5,0.8,6.2,2.8,7.1v0.6h-11.9v-0.6
			c1.9-0.9,2.8-2.6,2.8-7.1v-37h-3.9c-7.1,0-9.9,4.4-11.2,10.6h-0.8v-12.4H291.1z"/>
		<linearGradient id="SVGID_19_" gradientUnits="userSpaceOnUse" x1="314.7027" y1="396.3619" x2="314.7027" y2="349.8568">
			<stop  offset="0" style="stop-color:#DEDEDE"/>
			<stop  offset="6.548572e-002" style="stop-color:#E4E4E4"/>
			<stop  offset="0.3119" style="stop-color:#F3F3F3"/>
			<stop  offset="0.5959" style="stop-color:#FCFCFC"/>
			<stop  offset="1" style="stop-color:#FFFFFF"/>
		</linearGradient>
		<path class="st18" d="M330.9,385.4v11h-32.4v-0.6c1.9-0.9,2.8-2.6,2.8-7.1v-31c0-4.5-0.9-6.2-2.8-7.1v-0.6h31.3v9.9H329
			c-2.1-5.7-5.5-8.1-12.8-8.1h-8.6v20.4l7.2-0.3c4.3-0.2,6.2-2.3,7.3-6.3h0.7v14.4h-0.7c-1.2-4.1-3.1-5.9-7.5-6.1l-7-0.3v16.1
			c0,3.6,1.6,5.1,5.5,5.1h4.6c7.7,0,10.6-2.5,12.3-9.2H330.9z"/>
		<linearGradient id="SVGID_20_" gradientUnits="userSpaceOnUse" x1="354.7189" y1="396.3619" x2="354.7189" y2="349.8568">
			<stop  offset="0" style="stop-color:#DEDEDE"/>
			<stop  offset="6.548572e-002" style="stop-color:#E4E4E4"/>
			<stop  offset="0.3119" style="stop-color:#F3F3F3"/>
			<stop  offset="0.5959" style="stop-color:#FCFCFC"/>
			<stop  offset="1" style="stop-color:#FFFFFF"/>
		</linearGradient>
		<path class="st19" d="M370.7,383.6v12.8h-32v-0.6c1.9-0.9,2.8-2.8,2.8-7.1v-31c0-4.5-0.8-6.2-2.8-7.1v-0.6h11.9v0.6
			c-1.9,0.9-2.8,2.6-2.8,7.1v31.9c0,3.6,1.6,5.1,5.7,5.1h3.8c8,0,10.8-3,12.6-11H370.7z"/>
	</g>
	<path class="st20" d="M177,449.2"/>
	<path class="st20" d="M149.1,352.7"/>
	<g>
		<linearGradient id="SVGID_21_" gradientUnits="userSpaceOnUse" x1="176.766" y1="220.1957" x2="176.766" y2="630.2792">
			<stop  offset="0.5013" style="stop-color:#54BC82"/>
			<stop  offset="0.957" style="stop-color:#007B8F"/>
		</linearGradient>
		<path class="st21" d="M179.5,630.3c-111.8,0-178.4-93.2-178.4-205c0-111.8,66.6-205,178.4-205c72.1,0,130.6,41,166.8,103.5l-1,0
			c-34.6-59.8-96.7-92.4-165.7-92.4c-106.9,0-193.9,87-193.9,193.9s87,193.9,193.9,193.9c71.4,0,154.6-34.6,188.5-97.4l-9.9-0.2
			C322.5,587.2,254.1,630.3,179.5,630.3z"/>
	</g>
	
		<linearGradient id="SVGID_22_" gradientUnits="userSpaceOnUse" x1="593.0142" y1="1227.3914" x2="541.2635" y2="1282.7356" gradientTransform="matrix(0.9193 0.3934 -0.3934 0.9193 363.9474 -1076.5432)">
		<stop  offset="0" style="stop-color:#419047"/>
		<stop  offset="1" style="stop-color:#005D6C"/>
	</linearGradient>
	<path class="st22" d="M383.7,325.2c-9.5,2.7-19.5,2.3-29.2,4.5c-2.7,0.6-5.4,1.5-8,2.7c4.4-2.5,8.1-7.3,10.9-13.3
		c3.6-7.8,5.7-17.5,5.8-26.7c5.7-3.9,11.9-7,18.4-8.9c12.8-3.8,28.7-4.4,40.4-11C420.1,296.2,405.5,319.1,383.7,325.2z"/>
	<path class="st23" d="M363.7,290.5c-0.1-3.7-0.6-7.2-1.4-10.3c-1.9-7.3-5.4-14.2-8.8-20.8c-2-3.9-4-7.9-5.7-12
		c-3.3-7.8-7.7-22.5-0.6-34.1l-0.7-0.6c-8.6,8-17.5,16.3-23.8,26.4c-7.2,11.5-9.7,23.6-7.2,34.3c2.4,9.9,9,18.2,15.4,26.1
		c0.7,0.9,1.5,1.8,2.2,2.7c5.4,6.8,11.9,17.3,12.4,28.9c0,0.6,0,1.1,0,1.6c0,0.2,0,0.4,0,0.5l0,0.8l0.7-0.3
		c4.6-2.3,8.7-7.1,11.9-13.9C361.9,311.3,364,300.4,363.7,290.5z M357.5,319.6c-3,6.3-6.9,11.3-11.7,13.7c0-0.2,0-0.4,0-0.6
		c0-0.5,0-1.1,0-1.6c-0.5-10.5-6-20.9-12.5-29.2c-7-8.8-14.8-17.7-17.5-28.7c-2.7-11.5,0.8-23.9,7.1-33.9
		c6.3-10.1,15.1-18.3,23.8-26.3c-6.2,10.2-4,23.5,0.6,34.6c4.6,11,11.5,21.2,14.5,32.8c0.8,3.2,1.3,6.6,1.4,10.2
		C363.6,300.3,361.4,311.1,357.5,319.6z"/>
	
		<linearGradient id="SVGID_23_" gradientUnits="userSpaceOnUse" x1="-163.8532" y1="1236.4504" x2="-206.1372" y2="1281.6705" gradientTransform="matrix(-0.5492 -0.8357 -0.8357 0.5492 1307.7012 -529.8365)">
		<stop  offset="0" style="stop-color:#5ABA56"/>
		<stop  offset="1" style="stop-color:#00748B"/>
	</linearGradient>
	<path class="st24" d="M363.2,293.1c0,2.9-0.2,5.8-0.6,8.7c0.8-4.2,1-9,0.2-17.2c0,0.1-0.1,0.2-0.1,0.4c0.3,1.8,0.5,3.8,0.5,5.7
		C363.2,291.6,363.2,292.3,363.2,293.1z"/>
	
		<linearGradient id="SVGID_24_" gradientUnits="userSpaceOnUse" x1="-142.1018" y1="1256.7896" x2="-184.3858" y2="1302.0096" gradientTransform="matrix(-0.5492 -0.8357 -0.8357 0.5492 1307.7012 -529.8365)">
		<stop  offset="0" style="stop-color:#5ABA56"/>
		<stop  offset="1" style="stop-color:#00748B"/>
	</linearGradient>
	<path class="st25" d="M345.8,331.3c0-0.4,0-0.8-0.1-1.2c-0.7-8.9-4.9-17.7-10.2-25.1c-6.2,1.9-12.4,3.6-18.1,6.7
		c-12.5,6.9-20.7,21-20.6,35.4c6-6,15.1-7.7,23.7-8.4c8.5-0.8,17.5-1.1,24.8-5.4c0.2-0.1,0.3-0.2,0.5-0.3c0,0,0,0,0,0
		C345.8,332.4,345.8,331.9,345.8,331.3z"/>
	
		<linearGradient id="SVGID_25_" gradientUnits="userSpaceOnUse" x1="474.5758" y1="1204.4055" x2="541.9301" y2="1300.7292" gradientTransform="matrix(0.9193 0.3934 -0.3934 0.9193 363.9474 -1076.5432)">
		<stop  offset="0" style="stop-color:#54BC82"/>
		<stop  offset="1" style="stop-color:#9ACA4F"/>
	</linearGradient>
	<path class="st26" d="M362.7,285.1c-0.2-1.6-0.5-3.1-0.9-4.5c-3-11.6-9.9-21.7-14.5-32.8c-4.6-11-6.8-24.3-0.6-34.6
		c-8.7,8.1-17.5,16.3-23.8,26.3c-6.3,10.1-9.9,22.4-7.1,33.9c2.6,11,10.4,19.8,17.5,28.7c0.8,0.9,1.5,1.9,2.2,2.9
		c2.5-0.8,5-1.6,7.5-2.5C351.3,299.3,360.2,293.6,362.7,285.1z"/>
	
		<linearGradient id="SVGID_26_" gradientUnits="userSpaceOnUse" x1="480.1133" y1="1200.5334" x2="547.4675" y2="1296.8573" gradientTransform="matrix(0.9193 0.3934 -0.3934 0.9193 363.9474 -1076.5432)">
		<stop  offset="0" style="stop-color:#54BC82"/>
		<stop  offset="1" style="stop-color:#9ACA4F"/>
	</linearGradient>
	<path class="st27" d="M360.2,311.6c-2.2,8.5-6.9,16.8-14.4,21.4c0,0.2,0,0.3,0,0.5c0.2-0.1,0.5-0.2,0.7-0.3
		c4.4-2.5,8.1-7.3,10.9-13.3c2.5-5.3,4.2-11.6,5.1-18C362,305,361.2,307.9,360.2,311.6z"/>
	
		<linearGradient id="SVGID_27_" gradientUnits="userSpaceOnUse" x1="-194.1909" y1="1274.3966" x2="-145.1436" y2="1242.1633" gradientTransform="matrix(-0.5492 -0.8357 -0.8357 0.5492 1307.7012 -529.8365)">
		<stop  offset="0" style="stop-color:#419047"/>
		<stop  offset="0.1853" style="stop-color:#2E8152"/>
		<stop  offset="0.4949" style="stop-color:#156D60"/>
		<stop  offset="0.7756" style="stop-color:#056169"/>
		<stop  offset="1" style="stop-color:#005D6C"/>
	</linearGradient>
	<path class="st28" d="M360.2,311.6c1-3.7,1.8-6.6,2.4-9.7c0.4-2.9,0.6-5.9,0.6-8.7c0-0.8,0-1.6,0-2.4c-0.1-2-0.3-3.9-0.5-5.7
		c-2.5,8.5-11.4,14.3-19.7,17.5c-2.5,0.9-5,1.7-7.5,2.5c5.3,7.4,9.5,16.2,10.2,25.1c0,0.4,0.1,0.8,0.1,1.2c0,0.5,0,1.1,0,1.6
		c0,0,0,0,0,0C353.3,328.4,358,320.1,360.2,311.6z"/>
</g>
</svg>
