<?xml version="1.0" encoding="utf-8"?>
<!-- Generator: Adobe Illustrator 19.0.0, SVG Export Plug-In . SVG Version: 6.00 Build 0)  -->
<svg version="1.1" id="Layer_1" xmlns="http://www.w3.org/2000/svg" xmlns:xlink="http://www.w3.org/1999/xlink" x="0px" y="0px"
	 viewBox="0 0 362 327.1" style="enable-background:new 0 0 362 327.1;" xml:space="preserve">
<style type="text/css">
	.st0{fill:url(#XMLID_39_);}
	.st1{fill:#FFFFFF;}
	.st2{fill:none;stroke:#000000;stroke-width:9.8716;stroke-miterlimit:10;}
	.st3{fill:url(#XMLID_51_);}
	.st4{fill:url(#XMLID_101_);}
	.st5{fill:url(#XMLID_105_);}
	.st6{fill:url(#XMLID_106_);}
</style>
<g id="XMLID_35_">
	<linearGradient id="XMLID_39_" gradientUnits="userSpaceOnUse" x1="181" y1="317.1481" x2="181" y2="18.3333">
		<stop  offset="0" style="stop-color:#54BD82"/>
		<stop  offset="1" style="stop-color:#54BD82"/>
	</linearGradient>
	<path id="XMLID_53_" class="st0" d="M342.5,18.3v168.2c0,19.4-16.1,35.2-35.8,35.2h-82.2L211,244.8l-30,51.1l-30-51.1l-13.5-23.1
		H55.3c-19.7,0-35.8-15.9-35.8-35.2V18.3C10.7,25.4,5,36.2,5,48.2v149.7c0,21.1,17.5,38.4,39,38.4h89.6l14.8,25.2l32.7,55.7
		l32.7-55.7l14.8-25.2H318c21.5,0,39-17.3,39-38.4V48.2C357,36.2,351.3,25.4,342.5,18.3z"/>
	<path id="XMLID_103_" class="st1" d="M51,226.1h85l14,23.5l31,51.9l31-51.9l14-23.5h85c20.3,0,37-16.1,37-35.8V19.5
		c-6.9-5.4-15.7-8.7-25.3-8.7H39.3c-9.6,0-18.8-4.4-25.3,8.7v170.8C14,210,30.7,226.1,51,226.1z"/>
	<g id="XMLID_36_">
		<g id="XMLID_86_">
			<path id="XMLID_107_" d="M91.2,125.1v-0.4h5.8l6.7,14.4l5.3-14.4h5.4v0.4c-0.8,0.4-1.2,1.3-1.2,3.2v12.2c0,1.9,0.5,2.8,1.2,3.2
				v0.4h-6.6v-0.4c0.7-0.4,1.2-1.3,1.2-3.2v-12.8l-6.5,16.7h-0.9L94,128l0.3,10.9c0.1,2.8,1,4.4,2.1,4.9v0.4H91v-0.4
				c1.1-0.5,2-2.1,2-4.8l0.1-9.1C93.2,127,92.5,125.9,91.2,125.1z"/>
			<path id="XMLID_104_" d="M117.7,134.3c0-5.6,3.9-9.9,10-9.9c6.2,0,10,4.3,10,9.9c0,6.1-4,10.1-10,10.1
				C121.5,144.4,117.7,140.7,117.7,134.3z M133.1,134.3c0-4.8-1.8-9-5.4-9c-3.7,0-5.4,4.3-5.4,9c0,5,1.8,9.2,5.4,9.2
				C131.4,143.5,133.1,139.3,133.1,134.3z"/>
			<path id="XMLID_102_" d="M156.7,144.7h-0.5l-12.7-14.6l0.3,8.9c0.1,2.8,1,4.3,2.1,4.8v0.4h-5.3v-0.4c1.1-0.5,2-2,2-4.8l0.2-8.1
				c-0.1-2.8-0.9-4.8-2.2-5.8v-0.4h3.9l11.6,13.5l-0.2-8.4c-0.1-2.7-1-4.2-2-4.7v-0.4h5.2v0.4c-1.1,0.5-2,2-2,4.7L156.7,144.7z"/>
			<path id="XMLID_100_" d="M177.8,124.7v5.7h-0.4c-0.6-2.1-1.9-4.8-5-4.8h-1v14.9c0,1.9,0.5,2.8,1.2,3.2v0.4h-6.6v-0.4
				c0.7-0.4,1.2-1.3,1.2-3.2v-14.9h-0.9c-3.1,0-4.3,2.7-5,4.8H161v-5.7H177.8z"/>
			<path id="XMLID_98_" d="M185.9,143.5c2,0,3.1-1.2,3.1-2.7c0-4.6-9.4-4.3-9.4-10.9c0-3.2,2.8-5.4,6.4-5.4c2.3,0,4.1,0.5,5.4,1.4
				v4.6h-0.4c-1.4-3.9-3.5-5-5.3-5c-1.8,0-2.8,1.1-2.8,2.6c0,4.5,9.4,4.6,9.4,10.7c0,3.3-2.4,5.8-6.8,5.8c-2.7,0-4.7-0.8-5.9-1.5
				v-4.8h0.4C181.6,141.6,183.7,143.5,185.9,143.5z"/>
			<path id="XMLID_96_" d="M210,139.2v5h-14.3v-0.4c0.7-0.4,1.2-1.2,1.2-3.2v-12.2c0-2-0.5-2.8-1.2-3.2v-0.4h13.7v4.8H209
				c-1-2.3-2.7-3.9-5.6-3.9H201v8.3l1.9-0.1c1.8-0.1,2.7-1.3,3.3-2.8h0.3v6.5h-0.3c-0.6-1.4-1.5-2.6-3.3-2.7l-1.9-0.1v6.1
				c0,1.8,0.7,2.6,2.3,2.6h0.7c2.9,0,4.6-1.6,5.5-4.1H210z"/>
			<path id="XMLID_94_" d="M222.1,140.3c-1.1-1.4-2.1-3-3.3-4.9v-0.3c3.2-0.6,4.6-2.5,4.6-5.1c0-2.6-1.2-4.4-4.3-4.4h-0.9v14.9
				c0,2,0.5,2.8,1.2,3.2v0.4h-6.6v-0.4c0.7-0.4,1.2-1.3,1.2-3.2v-12.2c0-2-0.5-2.8-1.2-3.2v-0.4h7.3c5.4,0,7.8,2.1,7.8,5.3
				c0,3.2-2.6,4.5-5,4.9l1.8,2.2c2.3,3,4.1,5.1,5.7,6.1l-0.1,0.4c-0.7,0.5-1.3,0.7-2.5,0.7C225.7,144.4,224.3,143.2,222.1,140.3z"/>
			<path id="XMLID_92_" d="M241.6,140.3c-1.1-1.4-2.1-3-3.3-4.9v-0.3c3.2-0.6,4.6-2.5,4.6-5.1c0-2.6-1.2-4.4-4.3-4.4h-0.9v14.9
				c0,2,0.5,2.8,1.2,3.2v0.4h-6.6v-0.4c0.7-0.4,1.2-1.3,1.2-3.2v-12.2c0-2-0.5-2.8-1.2-3.2v-0.4h7.3c5.4,0,7.8,2.1,7.8,5.3
				c0,3.2-2.6,4.5-5,4.9l1.8,2.2c2.3,3,4.1,5.1,5.7,6.1l-0.1,0.4c-0.7,0.5-1.3,0.7-2.5,0.7C245.3,144.4,243.8,143.2,241.6,140.3z"/>
			<path id="XMLID_89_" d="M267.2,139.2c1,2.4,1.9,3.7,3.3,4.6v0.4h-8v-0.4c1.1-0.3,1.6-1.9,0.5-4.5l-0.3-0.8h-7.1l-0.3,0.9
				c-0.8,2.2-0.3,3.7,1,4.5v0.4h-5.9v-0.4c1.2-0.6,2.7-2.1,3.6-4.4l6.6-15h0.5L267.2,139.2z M262.2,137.5l-3.3-7.9l-3.1,7.9H262.2z"
				/>
			<path id="XMLID_87_" d="M286.2,124.7v5.7h-0.4c-0.6-2.1-1.9-4.8-5-4.8h-1v14.9c0,1.9,0.5,2.8,1.2,3.2v0.4h-6.6v-0.4
				c0.7-0.4,1.2-1.3,1.2-3.2v-14.9h-0.9c-3.1,0-4.3,2.7-5,4.8h-0.4v-5.7H286.2z"/>
		</g>
		<g id="XMLID_59_">
			<g id="XMLID_196_">
				<path id="XMLID_207_" d="M148.9,148.7c5.2,0,8,2.2,8,5.8c0,4.1-3.3,6.2-7.6,6.2c-0.5,0-1,0-1.5-0.1v-0.3c4-0.3,6-2.2,6-5.6
					c0-3.7-2.3-5.2-5.9-5.2h-1.4v15.9c0,1.9,0.4,2.7,1.2,3.1v0.3h-5.1v-0.3c0.8-0.4,1.2-1.1,1.2-3.1v-13.3c0-1.9-0.4-2.7-1.2-3.1
					v-0.3H148.9z"/>
				<path id="XMLID_205_" d="M174.1,163.2v5.5h-13.8v-0.3c0.8-0.4,1.2-1.2,1.2-3.1v-13.3c0-1.9-0.4-2.7-1.2-3.1v-0.3h5.1v0.3
					c-0.8,0.4-1.2,1.1-1.2,3.1v13.7c0,1.5,0.7,2.2,2.5,2.2h1.6c3.4,0,4.7-1.3,5.4-4.7H174.1z"/>
				<path id="XMLID_202_" d="M192.1,164.9c0.9,2.2,1.6,2.9,2.6,3.5v0.3h-5.8v-0.3c0.9-0.4,1.2-1.5,0.3-3.8l-0.9-2.1h-8.2l-0.6,1.4
					c-1.1,2.7-0.6,3.9,0.4,4.5v0.3h-5.2v-0.3c1.2-0.6,2.3-1.8,3.4-4.4l6.7-15.7h0.4L192.1,164.9z M187.9,161.8l-3.9-9.4l-3.7,9.4
					H187.9z"/>
				<path id="XMLID_200_" d="M211.2,163.1v5.6h-15.3v-0.3l11.9-19.1l-5.3,0.1c-3.3,0.1-4.7,1.5-5.6,4.6h-0.3v-5.3h14.6v0.3
					l-11.9,19.1l5.5-0.2c3.8-0.1,5.3-1.6,6.1-4.8H211.2z"/>
				<path id="XMLID_197_" d="M229.5,164.9c0.9,2.2,1.6,2.9,2.6,3.5v0.3h-5.8v-0.3c0.9-0.4,1.2-1.5,0.3-3.8l-0.9-2.1h-8.2l-0.6,1.4
					c-1.1,2.7-0.6,3.9,0.4,4.5v0.3h-5.2v-0.3c1.2-0.6,2.3-1.8,3.4-4.4l6.7-15.7h0.4L229.5,164.9z M225.3,161.8l-3.9-9.4l-3.7,9.4
					H225.3z"/>
			</g>
		</g>
		<g id="XMLID_47_">
			<path id="XMLID_57_" d="M159.8,101.3c-0.8,0.4-1.1,1.1-1.1,2.9v12.6c0,1.8,0.4,2.5,1.1,2.9v0.3H155v-0.3c0.8-0.4,1.1-1.1,1.1-2.9
				v-6h-9.7v6c0,1.8,0.3,2.5,1.1,2.9v0.3h-4.8v-0.3c0.8-0.4,1.1-1.1,1.1-2.9v-12.6c0-1.8-0.4-2.5-1.1-2.9V101h4.8v0.3
				c-0.8,0.4-1.1,1.1-1.1,2.9v5.9h9.7v-5.9c0-1.8-0.4-2.5-1.1-2.9V101h4.8V101.3z"/>
			<path id="XMLID_54_" d="M163.5,110.4c0-5.3,3.7-9.6,9.3-9.6c5.7,0,9.4,4.3,9.4,9.6c0,5.9-3.9,9.9-9.4,9.9
				C167.1,120.2,163.5,116.4,163.5,110.4z M179.2,110.4c0-4.9-2.5-8.9-6.4-8.9c-4,0-6.4,4-6.4,8.9c0,5.3,2.5,9.1,6.4,9.1
				C176.8,119.5,179.2,115.7,179.2,110.4z"/>
			<path id="XMLID_52_" d="M199.7,101v5h-0.3c-0.5-2.5-1.7-4.3-4.5-4.3h-1.7v15c0,1.8,0.3,2.5,1.1,2.9v0.3h-4.8v-0.3
				c0.8-0.4,1.1-1.1,1.1-2.9v-15H189c-2.9,0-4,1.8-4.5,4.3h-0.3v-5H199.7z"/>
			<path id="XMLID_50_" d="M215.8,115.5v4.4h-13.2v-0.3c0.8-0.4,1.1-1.1,1.1-2.9v-12.6c0-1.8-0.4-2.5-1.1-2.9V101h12.7v4h-0.3
				c-0.9-2.3-2.2-3.3-5.2-3.3h-3.5v8.3l2.9-0.1c1.8-0.1,2.5-0.9,3-2.6h0.3v5.8h-0.3c-0.5-1.7-1.3-2.4-3-2.5l-2.9-0.1v6.5
				c0,1.5,0.6,2.1,2.2,2.1h1.8c3.1,0,4.3-1,5-3.7H215.8z"/>
			<path id="XMLID_48_" d="M232,114.7v5.2h-13v-0.3c0.8-0.4,1.1-1.1,1.1-2.9v-12.6c0-1.8-0.3-2.5-1.1-2.9V101h4.8v0.3
				c-0.8,0.4-1.1,1.1-1.1,2.9v12.9c0,1.5,0.6,2.1,2.3,2.1h1.5c3.2,0,4.4-1.2,5.1-4.4H232z"/>
		</g>
		<path id="XMLID_9_" class="st2" d="M153.4,141.3"/>
		<path id="XMLID_8_" class="st2" d="M142.1,102.2"/>
		<g id="XMLID_43_">
			<linearGradient id="XMLID_51_" gradientUnits="userSpaceOnUse" x1="153.3251" y1="48.4533" x2="153.3251" y2="214.7781">
				<stop  offset="0.5013" style="stop-color:#54BD82"/>
				<stop  offset="0.957" style="stop-color:#007B90"/>
			</linearGradient>
			<path id="XMLID_7_" class="st3" d="M154.4,214.8c-45.4,0-72.4-37.8-72.4-83.2c0-45.4,27-83.2,72.4-83.2c29.3,0,53,16.6,67.6,42
				l-0.4,0c-14-24.2-39.2-37.5-67.2-37.5c-43.4,0-78.7,35.3-78.7,78.7s35.3,78.7,78.7,78.7c28.9,0,62.7-14,76.5-39.5l-4-0.1
				C212.4,197.3,184.7,214.8,154.4,214.8z"/>
		</g>
		
			<linearGradient id="XMLID_101_" gradientUnits="userSpaceOnUse" x1="432.6629" y1="1058.0533" x2="411.6735" y2="1080.5002" gradientTransform="matrix(0.9193 0.3934 -0.3934 0.9193 273.0212 -1068.1401)">
			<stop  offset="0" style="stop-color:#419147"/>
			<stop  offset="1" style="stop-color:#005D6C"/>
		</linearGradient>
		<path id="XMLID_6_" class="st4" d="M237.2,91.1c-3.9,1.1-7.9,0.9-11.8,1.8c-1.1,0.2-2.2,0.6-3.2,1.1c1.8-1,3.3-3,4.4-5.4
			c1.5-3.2,2.3-7.1,2.3-10.8c2.3-1.6,4.8-2.8,7.5-3.6c5.2-1.5,11.6-1.8,16.4-4.5C252,79.3,246.1,88.6,237.2,91.1z"/>
		
			<linearGradient id="XMLID_105_" gradientUnits="userSpaceOnUse" x1="-189.9756" y1="1087.1836" x2="-207.1255" y2="1105.5244" gradientTransform="matrix(-0.5492 -0.8357 -0.8357 0.5492 1023.6895 -683.043)">
			<stop  offset="0" style="stop-color:#5BBB57"/>
			<stop  offset="1" style="stop-color:#00748C"/>
		</linearGradient>
		<path id="XMLID_5_" class="st5" d="M221.7,94.3c3.1-1.8,5.1-5.2,6-8.8c0.9-3.5,1.6-5.1,1-10.9c-1,3.6-4.6,5.9-8,7.2
			c-3.4,1.3-7.1,2-10.4,3.7c-5.1,2.8-8.4,8.5-8.3,14.3c2.5-2.5,6.1-3.1,9.6-3.4C215.1,96.2,218.7,96.1,221.7,94.3z"/>
		<path id="XMLID_38_" class="st1" d="M229.1,77c-0.1-1.5-0.3-2.9-0.6-4.2c-0.8-3-2.2-5.8-3.6-8.5c-0.8-1.6-1.6-3.2-2.3-4.9
			c-1.3-3.2-3.1-9.1-0.3-13.8l-0.3-0.2c-3.5,3.2-7.1,6.6-9.7,10.7c-2.9,4.6-3.9,9.6-2.9,13.9c1,4,3.6,7.4,6.2,10.6
			c0.3,0.4,0.6,0.7,0.9,1.1c2.2,2.7,4.8,7,5,11.7c0,0.3,0,0.5,0,0.7c0,0.1,0,0.1,0,0.2l0,0.3l0.3-0.1c1.9-0.9,3.5-2.9,4.8-5.6
			C228.4,85.4,229.3,81,229.1,77z M226.6,88.8c-1.2,2.6-2.8,4.6-4.7,5.6c0-0.1,0-0.2,0-0.2c0-0.2,0-0.4,0-0.7
			c-0.2-4.3-2.4-8.5-5.1-11.8c-2.8-3.6-6-7.2-7.1-11.6c-1.1-4.7,0.3-9.7,2.9-13.8c2.5-4.1,6.1-7.4,9.6-10.7c-2.5,4.1-1.6,9.5,0.2,14
			c1.9,4.5,4.6,8.6,5.9,13.3c0.3,1.3,0.5,2.7,0.6,4.2C229.1,81,228.2,85.3,226.6,88.8z"/>
		
			<linearGradient id="XMLID_106_" gradientUnits="userSpaceOnUse" x1="384.6264" y1="1048.7301" x2="411.9445" y2="1087.7979" gradientTransform="matrix(0.9193 0.3934 -0.3934 0.9193 273.0212 -1068.1401)">
			<stop  offset="0" style="stop-color:#54BD82"/>
			<stop  offset="1" style="stop-color:#9BCB4F"/>
		</linearGradient>
		<path id="XMLID_1_" class="st6" d="M226.6,88.9c-1.1,2.4-2.6,4.4-4.4,5.4c-0.1,0-0.2,0.1-0.3,0.1c0-0.1,0-0.1,0-0.2
			c0-0.2,0-0.4,0-0.7c0-0.2,0-0.3,0-0.5c-0.3-4.1-2.5-8.1-5-11.4c-2.8-3.6-6-7.2-7.1-11.6c-1.1-4.7,0.3-9.7,2.9-13.8
			c2.5-4.1,6.1-7.4,9.6-10.7c-2.5,4.2-1.6,9.5,0.2,14c1.9,4.5,4.6,8.6,5.9,13.3c0.3,1.3,0.5,2.7,0.6,4.2c0,0.3,0,0.6,0,1
			C228.9,81.7,228.1,85.7,226.6,88.9z"/>
	</g>
</g>
</svg>
