<?xml version="1.0" encoding="utf-8"?>
<!-- Generator: Adobe Illustrator 19.1.0, SVG Export Plug-In . SVG Version: 6.00 Build 0)  -->
<svg version="1.1" id="Capa_1" xmlns="http://www.w3.org/2000/svg" xmlns:xlink="http://www.w3.org/1999/xlink" x="0px" y="0px"
	 viewBox="-170 294 254.9 254.9" style="enable-background:new -170 294 254.9 254.9;" xml:space="preserve">
<style type="text/css">
	.st0{fill:#FFFFFF;}
</style>
<g>
	<g>
		<path class="st0" d="M-146.1,429.8h10c0,0,1.2-5.3,2.7-11.7c1.5-6.5,13.4-11.7,26.6-11.7H24.7c13.2,0,24.6,5.3,25.5,11.7l1.6,11.7
			H61c13.2,0,23.9-10.7,23.9-23.9v-44.6c0-11-7.5-20.2-17.6-23c0.6,2.3,0.9,4.6,0.9,7v9.6c0,15.8-12.9,28.7-28.7,28.7h-164.1
			c-15.8,0-28.7-12.9-28.7-28.7v-9.6c0-2.4,0.3-4.8,0.9-7c-10.1,2.8-17.6,11.9-17.6,23v44.6C-170,419.1-159.3,429.8-146.1,429.8z"/>
		<path class="st0" d="M-124.6,374.1H39.5c10.5,0,19.1-8.6,19.1-19.1v-9.6c0-2.9-0.7-5.5-1.8-8h-198.7c-1.1,2.4-1.8,5.1-1.8,8v9.6
			C-143.7,365.5-135.1,374.1-124.6,374.1z M-134.1,345.9H46.3c1.3,0,2.4,1.1,2.4,2.4s-1.1,2.4-2.4,2.4h-180.4
			c-1.3,0-2.4-1.1-2.4-2.4S-135.4,345.9-134.1,345.9z M-134.1,360.8H46.3c1.3,0,2.4,1.1,2.4,2.4c0,1.3-1.1,2.4-2.4,2.4h-180.4
			c-1.3,0-2.4-1.1-2.4-2.4S-135.4,360.8-134.1,360.8z"/>
		<path class="st0" d="M42.8,421c-0.7-4.8-12-8.8-25.2-8.8H-101c-13.2,0-24.6,3.9-25.5,8.8c-0.9,4.8-1.6,8.8-1.6,8.8H44.1L42.8,421z
			"/>
		<path class="st0" d="M-112.1,504.3c0.9,0.8,2,1.2,3.1,1.2c1.3,0,2.7-0.6,3.6-1.6c0.7-0.9,18-21.1,4.9-37.6
			c-7.3-9.1-1.9-14.4-0.7-15.4c2-1.7,2.4-4.6,0.7-6.7c-1.6-2.1-4.7-2.4-6.7-0.8c-5,4-11.6,15.1-0.8,28.8c8.1,10.2-4.5,25.2-4.7,25.4
			C-114.3,499.6-114.1,502.6-112.1,504.3z"/>
		<path class="st0" d="M-70.3,504.3c0.9,0.8,2,1.2,3.1,1.2c1.3,0,2.7-0.6,3.6-1.6c0.7-0.9,18-21.1,4.9-37.6
			c-7.3-9.1-1.9-14.4-0.7-15.4c2-1.7,2.4-4.6,0.7-6.7c-1.6-2.1-4.7-2.4-6.7-0.8c-5,4-11.6,15.1-0.8,28.8c8.1,10.2-4.5,25.2-4.7,25.4
			C-72.5,499.6-72.3,502.6-70.3,504.3z"/>
		<path class="st0" d="M-28.5,504.3c0.9,0.8,2,1.2,3.1,1.2c1.3,0,2.7-0.6,3.6-1.6c0.7-0.9,18-21.1,4.9-37.6
			c-7.2-9.1-1.9-14.4-0.7-15.4c2-1.7,2.4-4.6,0.7-6.7c-1.6-2.1-4.6-2.4-6.7-0.8c-5,4-11.6,15.1-0.8,28.8c8.1,10.2-4.5,25.2-4.7,25.4
			C-30.7,499.6-30.5,502.6-28.5,504.3z"/>
		<path class="st0" d="M13.3,504.3c0.9,0.8,2,1.2,3.1,1.2c1.3,0,2.7-0.6,3.6-1.6c0.7-0.9,18-21.1,4.9-37.6
			c-7.2-9.1-1.9-14.4-0.7-15.4c2-1.7,2.4-4.6,0.7-6.7c-1.6-2.1-4.6-2.4-6.7-0.8c-5,4-11.6,15.1-0.8,28.8c8.1,10.2-4.5,25.2-4.7,25.4
			C11.1,499.6,11.3,502.6,13.3,504.3z"/>
	</g>
</g>
</svg>
