<?xml version="1.0" encoding="utf-8"?>
<!-- Generator: Adobe Illustrator 19.1.0, SVG Export Plug-In . SVG Version: 6.00 Build 0)  -->
<svg version="1.1" id="Capa_1" xmlns="http://www.w3.org/2000/svg" xmlns:xlink="http://www.w3.org/1999/xlink" x="0px" y="0px"
	 viewBox="8 114.9 612 612" style="enable-background:new 8 114.9 612 612;" xml:space="preserve">
<style type="text/css">
	.st0{fill:#FFFFFF;}
</style>
<g>
	<path class="st0" d="M586.8,166.4v-0.9h-3H43.9h-3v0.9c-17.7,1.2-30.8,15.3-32.9,32.3v3v355.7c0,6.9,1.8,12.7,4.8,17.9
		c6.9,12.1,17.1,18.3,31.1,18.3h197v49.7h-37.4c-9.3,0-16.5,7.2-16.5,16.5c0,9.3,7.2,16.5,16.5,16.5h220.7c9.3,0,16.8-7.2,16.8-16.5
		c0-9.3-7.5-16.5-16.8-16.5h-37.4v-49.7h197c14.1,0,24.3-6.1,31.1-18.3c3.1-5.5,5.1-11.4,5.1-17.9V201.7v-3
		C617.9,181.6,603.8,167.6,586.8,166.4z M586.8,201.7v355.7c0,2.1-0.9,3-3,3H43.9c-2.1,0-3-0.9-3-3V201.7v-3h545.8L586.8,201.7
		L586.8,201.7z"/>
</g>
</svg>
