<?xml version="1.0" encoding="utf-8"?>
<!-- Generator: Adobe Illustrator 19.1.0, SVG Export Plug-In . SVG Version: 6.00 Build 0)  -->
<svg version="1.1" id="Capa_1" xmlns="http://www.w3.org/2000/svg" xmlns:xlink="http://www.w3.org/1999/xlink" x="0px" y="0px"
	 viewBox="-55 179 484.9 484.9" style="enable-background:new -55 179 484.9 484.9;" xml:space="preserve">
<style type="text/css">
	.st0{fill:#FFFFFF;}
</style>
<g>
	<g id="_x32_3_19_">
		<g>
			<path class="st0" d="M78.3,510.4c9.7,0,17.5-7.8,17.5-17.5v-41.5h116.4v39.1c0,9.7,7.8,17.5,17.5,17.5c9.7,0,17.5-7.8,17.5-17.5
				V300.3c0-32.8,27.2-40.3,30.3-41l-0.2,0l0,0c7.7-1.8,13.5-8.7,13.5-17c0-9.7-7.8-17.5-17.5-17.5c-1.2,0-2.3,0.1-3.4,0.3v0
				c0,0,0,0,0,0c-0.2,0-0.4,0.1-0.5,0.1c-20.1,4.6-57.1,26-57.1,75.1v36.6H95.8v-34.2c0-31.1,24.3-39.4,29.5-40.8
				c8.2-1.5,14.4-8.6,14.4-17.2c0-9.7-7.8-17.5-17.5-17.5c-1.3,0-2.5,0.1-3.7,0.4l0,0c-19.9,4.3-57.6,25.6-57.6,75.2v190.2
				C60.8,502.5,68.6,510.4,78.3,510.4z M95.8,371.9h116.4v44.5H95.8L95.8,371.9L95.8,371.9z"/>
			<path class="st0" d="M-34.6,556.9c22.7-14.4,52.5-29.8,60.7-29.8c4.2,0,14.2,7.7,20.9,12.8c12.3,9.4,25,19.1,39.1,19.1
				c13.2,0,26.3-8.6,40-17.8c9.8-6.5,21.9-14.5,28.6-14.5c6.8,0,19,8.4,28.7,15.2c12.9,8.9,25,17.4,37.2,17.4
				c12.2,0,23.6-8.4,35.5-17.2c9.9-7.3,21.2-15.6,29.1-15.6c7.8,0,19.1,8.2,29,15.4c12.3,8.9,23.8,17.3,36.4,17.3
				c20.2,0,59.7-26.2,71.3-34.3c6-4.2,7.6-12.5,3.4-18.5c-4.2-6-12.5-7.6-18.5-3.4c-20.6,14.3-48.2,29.6-56.2,29.6
				c-3.9,0-14.1-7.4-20.8-12.2c-13.2-9.6-28.2-20.5-44.6-20.5c-16.6,0-31.6,11.1-44.9,20.8c-6.1,4.5-16.2,12-19.7,12
				c-3.9,0-15.3-7.9-22.1-12.6c-14.1-9.8-28.7-19.9-43.9-19.9c-14.7,0-29.3,9.6-43.3,19c-8.5,5.6-20.1,13.3-25.3,13.3
				c-5.1,0-15.4-7.9-22.9-13.6c-11.7-9-23.9-18.2-37-18.2c-20,0-62.4,25.9-75,33.9c-6.2,3.9-8,12.1-4.1,18.4
				C-49,559-40.8,560.8-34.6,556.9z"/>
			<path class="st0" d="M427.5,565.3c-4.2-6-12.5-7.6-18.5-3.4c-20.6,14.3-48.2,29.6-56.2,29.6c-3.9,0-14.1-7.4-20.8-12.2
				c-13.2-9.6-28.2-20.5-44.6-20.5c-16.6,0-31.6,11.1-44.9,20.8c-6.1,4.5-16.2,12-19.7,12c-3.9,0-15.3-7.9-22.1-12.6
				c-14.1-9.8-28.7-19.9-43.9-19.9c-14.7,0-29.3,9.6-43.3,19c-8.5,5.6-20.1,13.3-25.3,13.3c-5.1,0-15.4-7.9-22.9-13.6
				c-11.7-9-23.9-18.2-37-18.2c-20,0-62.4,25.9-75,33.9c-6.2,3.9-8,12.1-4.1,18.4c3.9,6.2,12.1,8,18.4,4.1
				c22.7-14.4,52.5-29.8,60.7-29.8c4.2,0,14.2,7.7,20.9,12.8c12.3,9.4,25,19.1,39.1,19.1c13.2,0,26.3-8.6,40-17.8
				c9.8-6.5,21.9-14.5,28.6-14.5c6.8,0,19,8.4,28.7,15.2c12.9,8.9,25,17.4,37.2,17.4c12.2,0,23.6-8.4,35.5-17.2
				c9.9-7.3,21.2-15.6,29.1-15.6c7.8,0,19.1,8.2,29,15.4c12.3,8.9,23.8,17.3,36.4,17.3c20.2,0,59.7-26.2,71.3-34.3
				C430.2,579.6,431.7,571.3,427.5,565.3z"/>
		</g>
	</g>
</g>
</svg>
