<?xml version="1.0" encoding="utf-8"?>
<!-- Generator: Adobe Illustrator 19.1.0, SVG Export Plug-In . SVG Version: 6.00 Build 0)  -->
<svg version="1.1" id="Capa_1" xmlns="http://www.w3.org/2000/svg" xmlns:xlink="http://www.w3.org/1999/xlink" x="0px" y="0px"
	 viewBox="8 114.9 612 612" style="enable-background:new 8 114.9 612 612;" xml:space="preserve">
<style type="text/css">
	.st0{fill:#FFFFFF;}
</style>
<g>
	<g id="Wi-Fi">
		<g>
			<path class="st0" d="M314,532.7c-30.9,0-55.9,25-55.9,55.9c0,30.8,25,55.9,55.9,55.9s55.9-25,55.9-55.9
				C369.9,557.7,344.8,532.7,314,532.7z M613.4,337.3C538.7,248.3,429.5,197.3,314,197.3s-224.7,51-299.4,139.9
				c-9.9,11.8-8.4,29.4,3.4,39.4c5.2,4.4,11.6,6.6,17.9,6.6c8,0,15.9-3.4,21.4-10c64.1-76.2,157.6-120,256.7-120
				s192.6,43.7,256.7,120c5.5,6.6,13.5,10,21.4,10c6.4,0,12.7-2.1,18-6.6C621.8,366.7,623.4,349.1,613.4,337.3z M314,309.1
				c-82.5,0-160.5,36.4-213.9,99.9c-9.9,11.8-8.4,29.4,3.4,39.4c5.2,4.4,11.6,6.6,18,6.6c8,0,15.9-3.4,21.4-10
				c42.7-50.8,105.1-80,171.1-80s128.4,29.2,171.1,80c5.5,6.6,13.5,10,21.4,10c6.4,0,12.7-2.1,18-6.6c11.8-9.9,13.4-27.6,3.4-39.4
				C474.5,345.5,396.5,309.1,314,309.1z M314,420.9c-49.6,0-96.3,21.9-128.3,59.9c-9.9,11.8-8.4,29.4,3.4,39.4
				c5.2,4.4,11.6,6.6,18,6.6c8,0,15.9-3.4,21.4-10c21.4-25.4,52.6-40,85.5-40s64.2,14.6,85.5,40c5.5,6.6,13.5,10,21.4,10
				c6.4,0,12.7-2.1,18-6.6c11.8-9.9,13.4-27.6,3.4-39.4C410.3,442.7,363.5,420.9,314,420.9z"/>
		</g>
	</g>
</g>
</svg>
